<svg width="260" height="191" viewBox="0 0 260 191" fill="none" xmlns="http://www.w3.org/2000/svg">
<path d="M1.24829 162.198C0.263488 163.155 0.249419 164.737 1.21686 165.733L16.9823 181.955C17.9497 182.951 19.5323 182.982 20.5171 182.025C21.5019 181.068 21.516 179.485 20.5486 178.489L6.53485 164.07L20.7999 150.206C21.7847 149.249 21.7988 147.666 20.8314 146.671C19.8639 145.675 18.2813 145.644 17.2965 146.601L1.24829 162.198ZM258.752 170.802C259.736 169.845 259.751 168.263 258.783 167.267L243.018 151.045C242.05 150.049 240.468 150.018 239.483 150.975C238.498 151.932 238.484 153.515 239.451 154.511L253.465 168.93L239.2 182.794C238.215 183.751 238.201 185.334 239.169 186.329C240.136 187.325 241.719 187.356 242.703 186.399L258.752 170.802ZM2.97778 166.5L13.5611 166.708L13.6056 161.708L3.02222 161.5L2.97778 166.5ZM34.7278 167.125L55.8944 167.542L55.9389 162.542L34.7722 162.125L34.7278 167.125ZM77.0611 167.958L98.2278 168.375L98.2722 163.375L77.1056 162.958L77.0611 167.958ZM119.394 168.792L140.561 169.208L140.606 164.208L119.439 163.792L119.394 168.792ZM161.728 169.625L182.894 170.042L182.939 165.042L161.772 164.625L161.728 169.625ZM204.061 170.458L225.228 170.875L225.272 165.875L204.106 165.458L204.061 170.458ZM246.394 171.292L256.978 171.5L257.022 166.5L246.439 166.292L246.394 171.292Z" fill="white"/>
<path d="M96.2386 178.364V190H93.4318V180.989H93.3636L90.7614 182.58V180.148L93.6307 178.364H96.2386ZM98.669 188.068V185.875L103.436 178.364H105.385V181.341H104.254L101.464 185.761V185.852H108.368V188.068H98.669ZM104.288 190V187.398L104.345 186.438V178.364H106.976V190H104.288ZM114.268 190.159C113.382 190.159 112.596 190.008 111.911 189.705C111.229 189.398 110.691 188.975 110.297 188.438C109.903 187.9 109.702 187.28 109.695 186.58H112.524C112.536 186.833 112.617 187.059 112.768 187.256C112.92 187.449 113.126 187.6 113.388 187.71C113.649 187.82 113.946 187.875 114.28 187.875C114.613 187.875 114.907 187.816 115.161 187.699C115.418 187.578 115.619 187.413 115.763 187.205C115.907 186.992 115.977 186.75 115.973 186.477C115.977 186.205 115.899 185.962 115.74 185.75C115.581 185.538 115.356 185.373 115.064 185.256C114.776 185.138 114.435 185.08 114.041 185.08H112.911V183.08H114.041C114.386 183.08 114.689 183.023 114.95 182.909C115.215 182.795 115.422 182.636 115.57 182.432C115.717 182.223 115.789 181.985 115.786 181.716C115.789 181.455 115.727 181.225 115.598 181.028C115.473 180.828 115.297 180.672 115.07 180.562C114.846 180.453 114.587 180.398 114.291 180.398C113.981 180.398 113.698 180.453 113.445 180.562C113.195 180.672 112.996 180.828 112.848 181.028C112.7 181.229 112.623 181.462 112.615 181.727H109.928C109.935 181.034 110.128 180.424 110.507 179.898C110.886 179.367 111.401 178.953 112.053 178.653C112.708 178.354 113.454 178.205 114.291 178.205C115.125 178.205 115.857 178.35 116.49 178.642C117.123 178.934 117.615 179.331 117.967 179.835C118.32 180.335 118.496 180.902 118.496 181.534C118.5 182.189 118.286 182.729 117.854 183.153C117.426 183.578 116.875 183.839 116.2 183.938V184.028C117.102 184.134 117.782 184.426 118.24 184.903C118.702 185.381 118.931 185.977 118.928 186.693C118.928 187.367 118.729 187.966 118.331 188.489C117.937 189.008 117.388 189.417 116.683 189.716C115.982 190.011 115.178 190.159 114.268 190.159ZM123.974 190V181.273H126.616V182.875H126.713C126.895 182.345 127.202 181.926 127.634 181.619C128.065 181.312 128.58 181.159 129.179 181.159C129.785 181.159 130.304 181.314 130.736 181.625C131.168 181.936 131.442 182.352 131.56 182.875H131.651C131.813 182.356 132.132 181.941 132.605 181.631C133.079 181.316 133.637 181.159 134.281 181.159C135.107 181.159 135.777 181.424 136.293 181.955C136.808 182.481 137.065 183.205 137.065 184.125V190H134.287V184.761C134.287 184.326 134.175 183.994 133.952 183.767C133.728 183.536 133.438 183.42 133.082 183.42C132.7 183.42 132.399 183.545 132.179 183.795C131.963 184.042 131.855 184.373 131.855 184.79V190H129.185V184.733C129.185 184.328 129.075 184.008 128.855 183.773C128.635 183.538 128.346 183.42 127.986 183.42C127.743 183.42 127.529 183.479 127.344 183.597C127.158 183.71 127.012 183.873 126.906 184.085C126.804 184.297 126.753 184.547 126.753 184.835V190H123.974ZM138.787 190V181.273H141.565V190H138.787ZM140.179 180.256C139.789 180.256 139.454 180.127 139.173 179.869C138.893 179.608 138.753 179.294 138.753 178.926C138.753 178.562 138.893 178.252 139.173 177.994C139.454 177.733 139.789 177.602 140.179 177.602C140.573 177.602 140.908 177.733 141.185 177.994C141.465 178.252 141.605 178.562 141.605 178.926C141.605 179.294 141.465 179.608 141.185 179.869C140.908 180.127 140.573 180.256 140.179 180.256ZM146.112 178.364V190H143.334V178.364H146.112ZM153.824 187.71L153.835 184.398H154.222L156.676 181.273H159.824L156.176 185.75H155.443L153.824 187.71ZM151.318 190V178.364H154.097V190H151.318ZM156.739 190L154.455 186.375L156.284 184.403L159.949 190H156.739ZM160.818 190V181.273H163.46V182.875H163.557C163.739 182.345 164.045 181.926 164.477 181.619C164.909 181.312 165.424 181.159 166.023 181.159C166.629 181.159 167.148 181.314 167.58 181.625C168.011 181.936 168.286 182.352 168.403 182.875H168.494C168.657 182.356 168.975 181.941 169.449 181.631C169.922 181.316 170.481 181.159 171.125 181.159C171.951 181.159 172.621 181.424 173.136 181.955C173.652 182.481 173.909 183.205 173.909 184.125V190H171.131V184.761C171.131 184.326 171.019 183.994 170.795 183.767C170.572 183.536 170.282 183.42 169.926 183.42C169.544 183.42 169.242 183.545 169.023 183.795C168.807 184.042 168.699 184.373 168.699 184.79V190H166.028V184.733C166.028 184.328 165.919 184.008 165.699 183.773C165.479 183.538 165.189 183.42 164.83 183.42C164.587 183.42 164.373 183.479 164.188 183.597C164.002 183.71 163.856 183.873 163.75 184.085C163.648 184.297 163.597 184.547 163.597 184.835V190H160.818Z" fill="white"/>
<circle cx="134" cy="75" r="75" fill="#72634D"/>
<path d="M60.1451 88.1679L207.725 89.3172C207.105 91.5374 206.936 93.0026 206.293 95.3286C205.606 97.8163 205.011 99.0395 204.289 101.626L62.4353 97.3284L61.5764 94.1794L60.718 91.0306L60.1451 88.1679Z" fill="#937D65"/>
<path d="M72.6141 118.429L189.656 125C189.656 125 195.018 118.231 197.976 113.571C200.976 108.845 204 101.286 204 101.286L62 97L64.0081 102.714L72.6141 118.429Z" fill="#E0C29B"/>
<path d="M84.1096 131.571L182.36 133C182.36 133 187.162 128.968 189.542 126.429C191.873 123.941 195 119.571 195 119.571C195 119.571 125.622 129.078 86.6952 113.571C77.659 109.972 64 103 64 103C64 103 67.4474 111.571 71.7566 117.571C78.9386 127.571 84.1096 131.571 84.1096 131.571Z" fill="#937D65"/>
<path d="M59.8588 64H208.138C208.138 64 209.064 71.5597 208.996 76.4222C208.922 81.7541 207.565 90 207.565 90H60.4313L59 78.4444V71.2222L59.8588 64Z" fill="#BF8E62"/>
<path d="M161.103 65.1034L59 68.8391C59 68.8391 59.612 62.6627 60.434 58.7816C61.2804 54.7857 63.3021 48.7241 63.3021 48.7241L93.9904 51.3103L203.551 47C203.551 47 206.132 53.6092 207.279 59.069C208.383 64.3221 209 72 209 72L198.388 68.8391L188.35 66.8276L161.103 65.1034Z" fill="#E0C29B"/>
<path d="M72.8571 32H195.429C195.429 32 199.285 37.5103 201.143 41.3704C202.788 44.7892 204 47.6173 204 47.6173L62 55C62 55 63.7546 49.037 66.5714 43.0741C68.6947 38.5794 72.8571 32 72.8571 32Z" fill="#937D65"/>
</svg>
