<svg width="260" height="142" viewBox="0 0 260 142" fill="none" xmlns="http://www.w3.org/2000/svg">
<path d="M1.24829 113.198C0.263488 114.155 0.249419 115.737 1.21686 116.733L16.9823 132.955C17.9497 133.951 19.5323 133.982 20.5171 133.025C21.5019 132.068 21.516 130.485 20.5486 129.489L6.53485 115.07L20.7999 101.206C21.7847 100.249 21.7988 98.6664 20.8314 97.6709C19.8639 96.6755 18.2813 96.6443 17.2965 97.6014L1.24829 113.198ZM258.752 121.802C259.736 120.845 259.751 119.263 258.783 118.267L243.018 102.045C242.05 101.049 240.468 101.018 239.483 101.975C238.498 102.932 238.484 104.515 239.451 105.511L253.465 119.93L239.2 133.794C238.215 134.751 238.201 136.334 239.169 137.329C240.136 138.325 241.719 138.356 242.703 137.399L258.752 121.802ZM2.97778 117.5L13.5611 117.708L13.6056 112.708L3.02222 112.5L2.97778 117.5ZM34.7278 118.125L55.8944 118.542L55.9389 113.542L34.7722 113.125L34.7278 118.125ZM77.0611 118.958L98.2278 119.375L98.2722 114.375L77.1056 113.958L77.0611 118.958ZM119.394 119.792L140.561 120.208L140.606 115.208L119.439 114.792L119.394 119.792ZM161.728 120.625L182.894 121.042L182.939 116.042L161.772 115.625L161.728 120.625ZM204.061 121.458L225.228 121.875L225.272 116.875L204.106 116.458L204.061 121.458ZM246.394 122.292L256.978 122.5L257.022 117.5L246.439 117.292L246.394 122.292Z" fill="white"/>
<path d="M95.5227 141.159C94.8864 141.159 94.2765 141.057 93.6932 140.852C93.1098 140.644 92.5909 140.314 92.1364 139.864C91.6818 139.409 91.3239 138.814 91.0625 138.08C90.8011 137.341 90.6723 136.441 90.6761 135.381C90.6799 134.422 90.7973 133.562 91.0284 132.801C91.2595 132.036 91.589 131.386 92.017 130.852C92.4489 130.318 92.964 129.911 93.5625 129.631C94.1648 129.347 94.8371 129.205 95.5795 129.205C96.3939 129.205 97.1117 129.364 97.733 129.682C98.358 129.996 98.858 130.42 99.233 130.955C99.608 131.485 99.8295 132.076 99.8977 132.727H97.1307C97.0473 132.36 96.8636 132.081 96.5795 131.892C96.2992 131.699 95.9659 131.602 95.5795 131.602C94.8674 131.602 94.3352 131.911 93.983 132.528C93.6345 133.146 93.4564 133.972 93.4489 135.006H93.5227C93.6818 134.657 93.911 134.358 94.2102 134.108C94.5095 133.858 94.8523 133.667 95.2386 133.534C95.6288 133.398 96.0417 133.33 96.4773 133.33C97.1742 133.33 97.7898 133.491 98.3239 133.812C98.858 134.134 99.2765 134.576 99.5795 135.136C99.8826 135.693 100.032 136.331 100.028 137.051C100.032 137.862 99.8428 138.578 99.4602 139.199C99.0777 139.816 98.5473 140.297 97.8693 140.642C97.1951 140.987 96.4129 141.159 95.5227 141.159ZM95.5057 139C95.8504 139 96.1591 138.919 96.4318 138.756C96.7045 138.593 96.9186 138.371 97.0739 138.091C97.2292 137.811 97.3049 137.494 97.3011 137.142C97.3049 136.786 97.2292 136.47 97.0739 136.193C96.9223 135.917 96.7102 135.697 96.4375 135.534C96.1686 135.371 95.8598 135.29 95.5114 135.29C95.2576 135.29 95.0208 135.337 94.8011 135.432C94.5814 135.527 94.3902 135.659 94.2273 135.83C94.0682 135.996 93.9432 136.193 93.8523 136.42C93.7614 136.644 93.714 136.886 93.7102 137.148C93.714 137.492 93.7936 137.805 93.9489 138.085C94.1042 138.366 94.3163 138.589 94.5852 138.756C94.8542 138.919 95.161 139 95.5057 139ZM102.756 141.165C102.347 141.165 101.996 141.021 101.705 140.733C101.417 140.445 101.275 140.097 101.278 139.688C101.275 139.286 101.417 138.943 101.705 138.659C101.996 138.371 102.347 138.227 102.756 138.227C103.142 138.227 103.483 138.371 103.778 138.659C104.078 138.943 104.229 139.286 104.233 139.688C104.229 139.96 104.157 140.208 104.017 140.432C103.881 140.655 103.701 140.833 103.477 140.966C103.258 141.098 103.017 141.165 102.756 141.165ZM106.04 141L110.733 131.705V131.631H105.244V129.364H113.642V131.648L108.932 141H106.04ZM119.411 129.205C120.047 129.205 120.655 129.309 121.234 129.517C121.814 129.722 122.331 130.049 122.786 130.5C123.24 130.947 123.598 131.536 123.859 132.267C124.121 132.998 124.251 133.89 124.251 134.943C124.255 135.913 124.142 136.782 123.911 137.551C123.679 138.316 123.348 138.968 122.916 139.506C122.488 140.044 121.973 140.455 121.371 140.739C120.768 141.019 120.096 141.159 119.354 141.159C118.536 141.159 117.814 141.002 117.189 140.688C116.568 140.369 116.07 139.941 115.695 139.403C115.323 138.866 115.102 138.263 115.03 137.597H117.797C117.884 137.983 118.068 138.275 118.348 138.472C118.628 138.665 118.964 138.761 119.354 138.761C120.066 138.761 120.598 138.453 120.95 137.835C121.303 137.218 121.479 136.379 121.479 135.318H121.411C121.248 135.667 121.017 135.966 120.717 136.216C120.422 136.466 120.079 136.657 119.689 136.79C119.299 136.922 118.888 136.989 118.456 136.989C117.759 136.989 117.143 136.83 116.609 136.511C116.079 136.193 115.662 135.756 115.359 135.199C115.06 134.642 114.909 134.006 114.905 133.29C114.901 132.487 115.089 131.778 115.467 131.165C115.846 130.547 116.375 130.066 117.053 129.722C117.731 129.373 118.517 129.201 119.411 129.205ZM119.428 131.364C119.079 131.364 118.768 131.445 118.496 131.608C118.227 131.771 118.015 131.991 117.859 132.267C117.704 132.544 117.628 132.854 117.632 133.199C117.636 133.544 117.714 133.854 117.865 134.131C118.02 134.407 118.231 134.627 118.496 134.79C118.765 134.953 119.071 135.034 119.416 135.034C119.674 135.034 119.912 134.987 120.132 134.892C120.352 134.797 120.543 134.667 120.706 134.5C120.869 134.33 120.996 134.133 121.087 133.909C121.181 133.686 121.227 133.447 121.223 133.193C121.219 132.856 121.14 132.549 120.984 132.273C120.829 131.996 120.615 131.777 120.342 131.614C120.073 131.447 119.768 131.364 119.428 131.364ZM125.653 139.068V136.875L130.42 129.364H132.369V132.341H131.239L128.449 136.761V136.852H135.352V139.068H125.653ZM131.273 141V138.398L131.33 137.438V129.364H133.96V141H131.273ZM149.668 138.71L149.679 135.398H150.065L152.52 132.273H155.668L152.02 136.75H151.287L149.668 138.71ZM147.162 141V129.364H149.94V141H147.162ZM152.582 141L150.298 137.375L152.128 135.403L155.793 141H152.582ZM156.662 141V132.273H159.304V133.875H159.401C159.582 133.345 159.889 132.926 160.321 132.619C160.753 132.312 161.268 132.159 161.866 132.159C162.473 132.159 162.991 132.314 163.423 132.625C163.855 132.936 164.13 133.352 164.247 133.875H164.338C164.501 133.356 164.819 132.941 165.293 132.631C165.766 132.316 166.325 132.159 166.969 132.159C167.795 132.159 168.465 132.424 168.98 132.955C169.495 133.481 169.753 134.205 169.753 135.125V141H166.974V135.761C166.974 135.326 166.863 134.994 166.639 134.767C166.416 134.536 166.126 134.42 165.77 134.42C165.387 134.42 165.086 134.545 164.866 134.795C164.651 135.042 164.543 135.373 164.543 135.79V141H161.872V135.733C161.872 135.328 161.762 135.008 161.543 134.773C161.323 134.538 161.033 134.42 160.673 134.42C160.431 134.42 160.217 134.479 160.031 134.597C159.846 134.71 159.7 134.873 159.594 135.085C159.491 135.297 159.44 135.547 159.44 135.835V141H156.662Z" fill="white"/>
<circle cx="130" cy="50" r="49.5" fill="#FF6459" stroke="#FF6359"/>
<path d="M104.415 43.5376C105.334 41.358 106.855 41.1745 109.2 41.0128C111.546 40.851 112.175 42.256 113.758 43.5376C115.083 44.6103 117.893 45.2318 116.72 46.751C115.547 48.2702 113.37 50.611 111.479 50.8824C108.859 51.2581 106.579 50.796 105.099 48.5871C103.993 46.9376 103.642 45.3694 104.415 43.5376Z" fill="#D70000"/>
<path d="M145.517 79.3659C151.326 82.8265 151.079 95.6098 151.079 95.6098L147.519 96.9268L143.515 98.2439L141.735 98.6829L136.84 99.561L129.276 100L123.937 99.561L121.267 99.1219L118.153 98.4634L113.258 96.9268L109.476 95.3902L106.139 93.6341L101.69 90.7805L99.9101 89.4634L96.7955 86.8293L92.791 82.6585L91.0112 80.4634L89.6764 78.7073L87.8966 75.8537L85.6719 71.6829L83.8921 67.5122L82.7798 64.2195L82.1124 61.8049L81.6674 59.6098L81.2225 56.9756L81 53.9024L85.0045 52.8049C85.0045 52.8049 90.3173 51.2533 93.236 52.5854C96.0932 53.8894 98.3528 58.7317 98.3528 58.7317L104.36 69.0488C106.705 73.0778 108.034 67.6092 110.366 66.6341C113.696 65.2418 115.206 62.7707 118.82 62.9024C121.209 62.9895 122.81 63.3195 124.604 64.878C127.293 67.2137 125.835 70.263 126.829 73.6585C127.691 76.6015 127.224 78.8234 129.276 81.1219C133.494 85.8456 140.055 76.1122 145.517 79.3659Z" fill="#DD0000"/>
<path d="M165.539 70.1463C169.515 73.277 167.319 82.878 167.319 82.878L167.542 83.0976L168.876 81.561L171.546 78.0488L173.771 74.3171L175.551 70.8049L176.885 67.5122L178.22 63.3415L179.11 59.6098L179.555 56.5366L180 52.1463V49.0732L179.555 43.3659L179.11 40.7317L178.665 38.5366L177.775 35.4634L176.885 32.8293L175.328 29.0976L172.881 24.4878L170.879 21.4146C170.879 21.4146 167.517 21.5549 165.539 22.2927C162.417 23.4576 161.255 25.2618 158.865 27.561C153.326 32.8898 154.872 40.1834 148.187 44.0244C142.58 47.2454 137.001 42.4963 131.724 46.2195C127.528 49.1794 123.967 52.1452 124.604 57.1951C125.197 61.8885 128.509 64.4845 133.058 65.9756C137.037 67.2799 139.616 64.1185 143.737 64.878C148.093 65.6807 149.455 69.0656 153.748 70.1463C158.21 71.2695 161.94 67.3124 165.539 70.1463Z" fill="#DD0000"/>
<path d="M86.1169 38.5366C84.5992 38.9088 82.1124 38.5366 82.1124 38.5366L82.5573 36.7805L83.8921 32.8293L84.3371 31.5122L85.6719 28.6585L87.8966 24.4878L89.2315 22.2927L90.7888 20.0976L92.5685 17.9024L95.4607 14.8293L103.247 8.46341L112.591 3.63415L119.043 1.65854L123.047 1V4.29268L125.717 8.68293L127.719 13.7317C127.719 13.7317 128.087 17.0748 127.052 18.7805C126.228 20.1365 123.937 21.4146 123.937 21.4146C123.937 21.4146 120.109 21.5049 118.153 22.7317C115.773 24.2237 115.945 26.515 114.148 28.6585C112.504 30.6203 111.95 32.5445 109.476 33.2683C106.91 34.019 105.321 32.6261 102.802 31.7317C100.243 30.8229 99.2899 28.7833 96.573 28.6585C94.8879 28.5811 93.8895 28.8648 92.3461 29.5366C88.3995 31.2544 90.303 37.5099 86.1169 38.5366Z" fill="#DD0000"/>
<path d="M160.867 17.9024C162.118 16.1442 163.537 13.0732 163.537 13.0732L159.978 10.2195L156.196 7.58537L152.636 5.60976L148.854 3.85366L144.849 2.53659L142.18 1.65854C142.18 1.65854 139.998 3.53422 138.843 4.95122C137.74 6.30377 136.891 7.01731 136.396 8.68293C135.906 10.3281 136.673 11.3807 136.396 13.0732C136.07 15.0541 135.505 16.0976 134.616 17.9024C131.661 23.9003 119.236 23.7424 122.157 29.7561C122.826 31.1324 124.604 32.8293 124.604 32.8293C124.604 32.8293 130.011 30.6526 133.058 31.9512C135.484 32.9849 135.268 35.8354 137.73 36.7805C140.333 37.7793 142.435 37.5066 144.849 36.1219C148.282 34.1533 146.574 30.1092 148.854 26.9024C152.237 22.1442 157.483 22.6595 160.867 17.9024Z" fill="#DD0000"/>
</svg>
