<svg width="260" height="118" viewBox="0 0 260 118" fill="none" xmlns="http://www.w3.org/2000/svg">
<path d="M1.24829 87.1975C0.263488 88.1546 0.249419 89.7374 1.21686 90.7329L16.9823 106.955C17.9497 107.951 19.5323 107.982 20.5171 107.025C21.5019 106.068 21.516 104.485 20.5486 103.489L6.53485 89.0696L20.7999 75.2063C21.7847 74.2493 21.7988 72.6664 20.8314 71.6709C19.8639 70.6755 18.2813 70.6443 17.2965 71.6014L1.24829 87.1975ZM258.752 95.8025C259.736 94.8454 259.751 93.2626 258.783 92.2671L243.018 76.0447C242.05 75.0492 240.468 75.0181 239.483 75.9751C238.498 76.9322 238.484 78.515 239.451 79.5105L253.465 93.9304L239.2 107.794C238.215 108.751 238.201 110.334 239.169 111.329C240.136 112.325 241.719 112.356 242.703 111.399L258.752 95.8025ZM2.97778 91.4999L13.5611 91.7082L13.6056 86.7084L3.02222 86.5001L2.97778 91.4999ZM34.7278 92.1249L55.8944 92.5416L55.9389 87.5418L34.7722 87.1251L34.7278 92.1249ZM77.0611 92.9582L98.2278 93.3749L98.2722 88.3751L77.1056 87.9584L77.0611 92.9582ZM119.394 93.7916L140.561 94.2082L140.606 89.2084L119.439 88.7918L119.394 93.7916ZM161.728 94.6249L182.894 95.0416L182.939 90.0418L161.772 89.6251L161.728 94.6249ZM204.061 95.4582L225.228 95.8749L225.272 90.8751L204.106 90.4584L204.061 95.4582ZM246.394 96.2916L256.978 96.4999L257.022 91.5001L246.439 91.2918L246.394 96.2916Z" fill="white"/>
<path d="M94.7159 115.068V112.875L99.483 105.364H101.432V108.341H100.301L97.5114 112.761V112.852H104.415V115.068H94.7159ZM100.335 117V114.398L100.392 113.438V105.364H103.023V117H100.335ZM107.365 117.165C106.956 117.165 106.606 117.021 106.314 116.733C106.026 116.445 105.884 116.097 105.888 115.688C105.884 115.286 106.026 114.943 106.314 114.659C106.606 114.371 106.956 114.227 107.365 114.227C107.751 114.227 108.092 114.371 108.388 114.659C108.687 114.943 108.839 115.286 108.842 115.688C108.839 115.96 108.767 116.208 108.626 116.432C108.49 116.655 108.31 116.833 108.087 116.966C107.867 117.098 107.626 117.165 107.365 117.165ZM114.7 117.159C113.795 117.159 112.986 117.015 112.274 116.727C111.566 116.436 111.009 116.042 110.604 115.545C110.202 115.045 110.001 114.481 110.001 113.852C110.001 113.371 110.117 112.93 110.348 112.528C110.579 112.127 110.892 111.794 111.286 111.528C111.683 111.259 112.126 111.087 112.615 111.011V110.92C111.975 110.803 111.45 110.506 111.041 110.028C110.636 109.551 110.433 108.992 110.433 108.352C110.433 107.746 110.617 107.206 110.984 106.733C111.356 106.259 111.861 105.886 112.501 105.614C113.145 105.341 113.878 105.205 114.7 105.205C115.522 105.205 116.253 105.341 116.893 105.614C117.537 105.886 118.043 106.259 118.411 106.733C118.782 107.206 118.967 107.746 118.967 108.352C118.967 108.996 118.761 109.557 118.348 110.034C117.939 110.508 117.418 110.803 116.786 110.92V111.011C117.27 111.087 117.71 111.259 118.104 111.528C118.501 111.794 118.816 112.127 119.047 112.528C119.282 112.93 119.399 113.371 119.399 113.852C119.399 114.481 119.196 115.045 118.791 115.545C118.386 116.042 117.829 116.436 117.121 116.727C116.416 117.015 115.609 117.159 114.7 117.159ZM114.7 115.165C115.045 115.165 115.348 115.1 115.609 114.972C115.871 114.839 116.075 114.655 116.223 114.42C116.375 114.186 116.45 113.92 116.45 113.625C116.45 113.322 116.375 113.053 116.223 112.818C116.071 112.583 115.863 112.4 115.598 112.267C115.337 112.131 115.037 112.062 114.7 112.062C114.367 112.062 114.068 112.131 113.803 112.267C113.537 112.4 113.329 112.583 113.178 112.818C113.026 113.053 112.95 113.322 112.95 113.625C112.95 113.92 113.024 114.186 113.172 114.42C113.323 114.652 113.53 114.833 113.791 114.966C114.056 115.098 114.359 115.165 114.7 115.165ZM114.7 110.08C114.996 110.08 115.257 110.019 115.484 109.898C115.715 109.777 115.895 109.608 116.024 109.392C116.157 109.176 116.223 108.932 116.223 108.659C116.223 108.386 116.157 108.146 116.024 107.938C115.895 107.729 115.717 107.566 115.49 107.449C115.263 107.328 115 107.267 114.7 107.267C114.405 107.267 114.142 107.328 113.911 107.449C113.679 107.566 113.5 107.729 113.371 107.938C113.242 108.146 113.178 108.386 113.178 108.659C113.178 108.932 113.242 109.176 113.371 109.392C113.503 109.604 113.685 109.773 113.916 109.898C114.147 110.019 114.409 110.08 114.7 110.08ZM121.462 117L126.155 107.705V107.631H120.666V105.364H129.064V107.648L124.354 117H121.462ZM134.832 105.205C135.469 105.205 136.077 105.309 136.656 105.517C137.236 105.722 137.753 106.049 138.207 106.5C138.662 106.947 139.02 107.536 139.281 108.267C139.543 108.998 139.673 109.89 139.673 110.943C139.677 111.913 139.563 112.782 139.332 113.551C139.101 114.316 138.77 114.968 138.338 115.506C137.91 116.044 137.395 116.455 136.793 116.739C136.19 117.019 135.518 117.159 134.776 117.159C133.957 117.159 133.236 117.002 132.611 116.688C131.99 116.369 131.491 115.941 131.116 115.403C130.745 114.866 130.524 114.263 130.452 113.597H133.219C133.306 113.983 133.49 114.275 133.77 114.472C134.05 114.665 134.385 114.761 134.776 114.761C135.488 114.761 136.02 114.453 136.372 113.835C136.724 113.218 136.901 112.379 136.901 111.318H136.832C136.67 111.667 136.438 111.966 136.139 112.216C135.844 112.466 135.501 112.657 135.111 112.79C134.721 112.922 134.31 112.989 133.878 112.989C133.181 112.989 132.565 112.83 132.031 112.511C131.501 112.193 131.084 111.756 130.781 111.199C130.482 110.642 130.33 110.006 130.327 109.29C130.323 108.487 130.51 107.778 130.889 107.165C131.268 106.547 131.796 106.066 132.474 105.722C133.152 105.373 133.938 105.201 134.832 105.205ZM134.849 107.364C134.501 107.364 134.19 107.445 133.918 107.608C133.649 107.771 133.437 107.991 133.281 108.267C133.126 108.544 133.05 108.854 133.054 109.199C133.058 109.544 133.135 109.854 133.287 110.131C133.442 110.407 133.652 110.627 133.918 110.79C134.187 110.953 134.493 111.034 134.838 111.034C135.096 111.034 135.334 110.987 135.554 110.892C135.774 110.797 135.965 110.667 136.128 110.5C136.291 110.33 136.418 110.133 136.509 109.909C136.603 109.686 136.649 109.447 136.645 109.193C136.641 108.856 136.562 108.549 136.406 108.273C136.251 107.996 136.037 107.777 135.764 107.614C135.495 107.447 135.19 107.364 134.849 107.364ZM147.183 114.71L147.195 111.398H147.581L150.036 108.273H153.183L149.536 112.75H148.803L147.183 114.71ZM144.678 117V105.364H147.456V117H144.678ZM150.098 117L147.814 113.375L149.643 111.403L153.308 117H150.098ZM154.178 117V108.273H156.82V109.875H156.916C157.098 109.345 157.405 108.926 157.837 108.619C158.268 108.312 158.784 108.159 159.382 108.159C159.988 108.159 160.507 108.314 160.939 108.625C161.371 108.936 161.645 109.352 161.763 109.875H161.854C162.017 109.356 162.335 108.941 162.808 108.631C163.282 108.316 163.84 108.159 164.484 108.159C165.31 108.159 165.981 108.424 166.496 108.955C167.011 109.481 167.268 110.205 167.268 111.125V117H164.49V111.761C164.49 111.326 164.378 110.994 164.155 110.767C163.931 110.536 163.642 110.42 163.286 110.42C162.903 110.42 162.602 110.545 162.382 110.795C162.166 111.042 162.058 111.373 162.058 111.79V117H159.388V111.733C159.388 111.328 159.278 111.008 159.058 110.773C158.839 110.538 158.549 110.42 158.189 110.42C157.946 110.42 157.732 110.479 157.547 110.597C157.361 110.71 157.215 110.873 157.109 111.085C157.007 111.297 156.956 111.547 156.956 111.835V117H154.178Z" fill="white"/>
<circle cx="130" cy="30.0005" r="30" fill="#E9CEA6"/>
<path d="M129.421 54.3287C124.776 54.8982 117.386 57.1188 117.386 57.1188C117.386 57.1188 123.981 60.7137 132.752 59.8724C140.463 59.1329 146.164 55.1216 146.164 55.1216C146.164 55.1216 135.88 53.5369 129.421 54.3287Z" fill="#E5A663"/>
<path d="M155.556 45.5353C155.556 45.5353 140.116 44.699 130.532 46.5675C126.351 47.3825 124 47.9232 119.984 49.3394C116.414 50.5983 111.102 53.22 111.102 53.22C111.102 53.22 111.391 53.5239 111.991 53.9233C112.315 54.1397 112.79 54.5225 112.79 54.5225C112.79 54.5225 120.267 50.5158 124.98 49.8937C127.13 49.6101 136.135 49.3394 138.303 49.3394C146.758 49.3394 152.359 49.929 152.359 49.929C152.359 49.929 153.366 48.7366 153.958 47.9319C154.773 46.8228 155.556 45.5353 155.556 45.5353Z" fill="#E5A663"/>
<path d="M125.535 43.2413C118.562 44.9364 108.593 51.1273 108.593 51.1273L104.796 46.5339C104.796 46.5339 110.321 42.1939 114.433 41.0238C117.984 40.0135 120.186 40.7121 123.87 40.4694C129.511 40.0978 138.303 39.3607 138.303 39.3607L158.754 38.3456L158.354 39.5438L157.954 40.7421C157.954 40.7421 147.362 41.9051 141.079 42.1325C134.997 42.3527 131.448 41.804 125.535 43.2413Z" fill="#E5A663"/>
<path d="M114.433 33.2626C109.08 34.4523 100.999 37.7464 100.999 37.7464L101.665 39.915C101.665 39.915 109.279 40.139 113.878 38.8063C116.585 38.022 117.823 36.7846 120.539 36.0344C127.02 34.2447 131.024 36.6204 137.748 36.5888C146.214 36.549 159.353 35.949 159.353 35.949L159.553 34.7507L159.753 33.5524C159.753 33.5524 155.216 32.1538 152.181 32.1538C146.545 32.1538 143.384 32.0515 137.748 32.1538C128.634 32.3193 123.331 31.2852 114.433 33.2626Z" fill="#E5A663"/>
<path d="M125.535 7.20708L108.793 8.7877C108.793 8.7877 113.19 4.19421 118.319 2.21773C122.643 0.551553 125.342 -0.0116194 129.976 0.000235698C133.932 0.0103555 136.237 0.352389 139.969 1.66335C143.723 2.98217 148.85 6.6527 148.85 6.6527L125.535 7.20708Z" fill="#E5A663"/>
<path d="M114.433 29.9363C108.846 31.0151 100.2 33.5524 100.2 33.5524L100 30.625V29.5581C100 29.5581 108.427 26.1404 113.878 25.5014C120.137 24.7676 124.61 24.7622 129.976 24.3926C135.343 24.023 138.756 25.4854 144.41 25.5014C150.279 25.518 159.398 24.3926 159.398 24.3926C159.398 24.3926 159.845 26.064 159.953 27.1615C160.059 28.2399 159.953 29.9363 159.953 29.9363H144.965L134.417 29.382C134.417 29.382 122.098 28.4563 114.433 29.9363Z" fill="#E5A663"/>
<path d="M120.539 21.6208C112.949 21.5233 101.199 21.5695 101.199 21.5695C101.199 21.5695 101.399 20.7032 101.599 20.1715C101.799 19.6371 101.998 19.1729 101.998 19.1729C101.998 19.1729 114.405 18.5794 122.205 18.8489C128.935 19.0814 132.679 19.9314 139.413 19.9576C146.58 19.9855 157.755 18.7735 157.755 18.7735C157.755 18.7735 158.148 19.7373 158.354 20.3712C158.579 21.0654 158.954 22.3683 158.954 22.3683C158.954 22.3683 155.803 22.5721 153.847 22.7295C148.66 23.1466 141.079 22.7295 140.524 22.7295C139.969 22.7295 128.355 21.7211 120.539 21.6208Z" fill="#E5A663"/>
<path d="M122.76 14.9683L104.397 14.3797L105.396 12.782C105.396 12.782 108.541 11.5401 110.547 11.0877C114.988 10.0862 117.652 11.0877 122.205 11.0877H137.193H153.291C153.291 11.0877 154.522 12.5437 155.157 13.5809C155.847 14.7083 156.755 16.3769 156.755 16.3769L152.181 16.077L136.083 14.9683H122.76Z" fill="#E5A663"/>
</svg>
