<svg width="260" height="148" viewBox="0 0 260 148" fill="none" xmlns="http://www.w3.org/2000/svg">
<path d="M1.24829 122.198C0.263488 123.155 0.249419 124.737 1.21686 125.733L16.9823 141.955C17.9497 142.951 19.5323 142.982 20.5171 142.025C21.5019 141.068 21.516 139.485 20.5486 138.489L6.53485 124.07L20.7999 110.206C21.7847 109.249 21.7988 107.666 20.8314 106.671C19.8639 105.675 18.2813 105.644 17.2965 106.601L1.24829 122.198ZM258.752 130.802C259.736 129.845 259.751 128.263 258.783 127.267L243.018 111.045C242.05 110.049 240.468 110.018 239.483 110.975C238.498 111.932 238.484 113.515 239.451 114.511L253.465 128.93L239.2 142.794C238.215 143.751 238.201 145.334 239.169 146.329C240.136 147.325 241.719 147.356 242.703 146.399L258.752 130.802ZM2.97778 126.5L13.5611 126.708L13.6056 121.708L3.02222 121.5L2.97778 126.5ZM34.7278 127.125L55.8944 127.542L55.9389 122.542L34.7722 122.125L34.7278 127.125ZM77.0611 127.958L98.2278 128.375L98.2722 123.375L77.1056 122.958L77.0611 127.958ZM119.394 128.792L140.561 129.208L140.606 124.208L119.439 123.792L119.394 128.792ZM161.728 129.625L182.894 130.042L182.939 125.042L161.772 124.625L161.728 129.625ZM204.061 130.458L225.228 130.875L225.272 125.875L204.106 125.458L204.061 130.458ZM246.394 131.292L256.978 131.5L257.022 126.5L246.439 126.292L246.394 131.292Z" fill="white"/>
<path d="M86.7159 145.068V142.875L91.483 135.364H93.4318V138.341H92.3011L89.5114 142.761V142.852H96.4148V145.068H86.7159ZM92.3352 147V144.398L92.392 143.438V135.364H95.0227V147H92.3352ZM102.27 135.205C102.906 135.205 103.514 135.309 104.094 135.517C104.673 135.722 105.19 136.049 105.645 136.5C106.099 136.947 106.457 137.536 106.719 138.267C106.98 138.998 107.111 139.89 107.111 140.943C107.115 141.913 107.001 142.782 106.77 143.551C106.539 144.316 106.207 144.968 105.776 145.506C105.348 146.044 104.832 146.455 104.23 146.739C103.628 147.019 102.955 147.159 102.213 147.159C101.395 147.159 100.673 147.002 100.048 146.688C99.4271 146.369 98.929 145.941 98.554 145.403C98.1828 144.866 97.9612 144.263 97.8892 143.597H100.656C100.743 143.983 100.927 144.275 101.207 144.472C101.488 144.665 101.823 144.761 102.213 144.761C102.925 144.761 103.457 144.453 103.81 143.835C104.162 143.218 104.338 142.379 104.338 141.318H104.27C104.107 141.667 103.876 141.966 103.577 142.216C103.281 142.466 102.938 142.657 102.548 142.79C102.158 142.922 101.747 142.989 101.315 142.989C100.618 142.989 100.003 142.83 99.4688 142.511C98.9384 142.193 98.5218 141.756 98.2188 141.199C97.9195 140.642 97.768 140.006 97.7642 139.29C97.7604 138.487 97.9479 137.778 98.3267 137.165C98.7055 136.547 99.2339 136.066 99.9119 135.722C100.59 135.373 101.376 135.201 102.27 135.205ZM102.287 137.364C101.938 137.364 101.628 137.445 101.355 137.608C101.086 137.771 100.874 137.991 100.719 138.267C100.563 138.544 100.488 138.854 100.491 139.199C100.495 139.544 100.573 139.854 100.724 140.131C100.88 140.407 101.09 140.627 101.355 140.79C101.624 140.953 101.931 141.034 102.276 141.034C102.533 141.034 102.772 140.987 102.991 140.892C103.211 140.797 103.402 140.667 103.565 140.5C103.728 140.33 103.855 140.133 103.946 139.909C104.041 139.686 104.086 139.447 104.082 139.193C104.079 138.856 103.999 138.549 103.844 138.273C103.688 137.996 103.474 137.777 103.202 137.614C102.933 137.447 102.628 137.364 102.287 137.364ZM109.74 147.165C109.331 147.165 108.981 147.021 108.689 146.733C108.401 146.445 108.259 146.097 108.263 145.688C108.259 145.286 108.401 144.943 108.689 144.659C108.981 144.371 109.331 144.227 109.74 144.227C110.126 144.227 110.467 144.371 110.763 144.659C111.062 144.943 111.214 145.286 111.217 145.688C111.214 145.96 111.142 146.208 111.001 146.432C110.865 146.655 110.685 146.833 110.462 146.966C110.242 147.098 110.001 147.165 109.74 147.165ZM117.438 147.159C116.589 147.159 115.835 147.006 115.176 146.699C114.517 146.392 113.996 145.97 113.614 145.432C113.235 144.894 113.038 144.277 113.023 143.58H115.75C115.773 144.008 115.947 144.352 116.273 144.614C116.598 144.871 116.987 145 117.438 145C117.79 145 118.102 144.922 118.375 144.767C118.648 144.612 118.862 144.394 119.017 144.114C119.172 143.83 119.248 143.504 119.244 143.136C119.248 142.761 119.17 142.434 119.011 142.153C118.856 141.873 118.64 141.655 118.364 141.5C118.091 141.341 117.777 141.261 117.42 141.261C117.083 141.258 116.763 141.331 116.46 141.483C116.161 141.634 115.934 141.841 115.778 142.102L113.295 141.636L113.801 135.364H121.267V137.631H116.114L115.847 140.375H115.915C116.108 140.053 116.419 139.788 116.847 139.58C117.278 139.367 117.769 139.261 118.318 139.261C119.015 139.261 119.636 139.424 120.182 139.75C120.731 140.072 121.163 140.519 121.477 141.091C121.795 141.663 121.955 142.318 121.955 143.057C121.955 143.856 121.765 144.564 121.386 145.182C121.011 145.799 120.485 146.284 119.807 146.636C119.133 146.985 118.343 147.159 117.438 147.159ZM123.499 147V144.977L127.743 141.261C128.061 140.973 128.332 140.71 128.555 140.472C128.779 140.229 128.949 139.987 129.067 139.744C129.184 139.498 129.243 139.231 129.243 138.943C129.243 138.621 129.173 138.347 129.033 138.119C128.893 137.888 128.699 137.71 128.453 137.585C128.207 137.46 127.925 137.398 127.607 137.398C127.285 137.398 127.002 137.464 126.76 137.597C126.518 137.725 126.328 137.913 126.192 138.159C126.059 138.405 125.993 138.705 125.993 139.057H123.328C123.328 138.265 123.506 137.581 123.862 137.006C124.218 136.43 124.718 135.987 125.362 135.676C126.01 135.362 126.762 135.205 127.618 135.205C128.5 135.205 129.268 135.352 129.919 135.648C130.571 135.943 131.074 136.356 131.43 136.886C131.79 137.413 131.97 138.025 131.97 138.722C131.97 139.165 131.881 139.604 131.703 140.04C131.525 140.475 131.205 140.956 130.743 141.483C130.285 142.009 129.633 142.64 128.788 143.375L127.396 144.659V144.733H132.112V147H123.499ZM138.247 147.159C137.342 147.159 136.533 147.015 135.821 146.727C135.113 146.436 134.556 146.042 134.151 145.545C133.749 145.045 133.548 144.481 133.548 143.852C133.548 143.371 133.664 142.93 133.895 142.528C134.126 142.127 134.438 141.794 134.832 141.528C135.23 141.259 135.673 141.087 136.162 141.011V140.92C135.522 140.803 134.997 140.506 134.588 140.028C134.183 139.551 133.98 138.992 133.98 138.352C133.98 137.746 134.164 137.206 134.531 136.733C134.902 136.259 135.408 135.886 136.048 135.614C136.692 135.341 137.425 135.205 138.247 135.205C139.069 135.205 139.8 135.341 140.44 135.614C141.084 135.886 141.59 136.259 141.957 136.733C142.329 137.206 142.514 137.746 142.514 138.352C142.514 138.996 142.308 139.557 141.895 140.034C141.486 140.508 140.965 140.803 140.332 140.92V141.011C140.817 141.087 141.257 141.259 141.651 141.528C142.048 141.794 142.363 142.127 142.594 142.528C142.829 142.93 142.946 143.371 142.946 143.852C142.946 144.481 142.743 145.045 142.338 145.545C141.933 146.042 141.376 146.436 140.668 146.727C139.963 147.015 139.156 147.159 138.247 147.159ZM138.247 145.165C138.592 145.165 138.895 145.1 139.156 144.972C139.418 144.839 139.622 144.655 139.77 144.42C139.921 144.186 139.997 143.92 139.997 143.625C139.997 143.322 139.921 143.053 139.77 142.818C139.618 142.583 139.41 142.4 139.145 142.267C138.884 142.131 138.584 142.062 138.247 142.062C137.914 142.062 137.615 142.131 137.349 142.267C137.084 142.4 136.876 142.583 136.724 142.818C136.573 143.053 136.497 143.322 136.497 143.625C136.497 143.92 136.571 144.186 136.719 144.42C136.87 144.652 137.077 144.833 137.338 144.966C137.603 145.098 137.906 145.165 138.247 145.165ZM138.247 140.08C138.543 140.08 138.804 140.019 139.031 139.898C139.262 139.777 139.442 139.608 139.571 139.392C139.704 139.176 139.77 138.932 139.77 138.659C139.77 138.386 139.704 138.146 139.571 137.938C139.442 137.729 139.264 137.566 139.037 137.449C138.81 137.328 138.546 137.267 138.247 137.267C137.952 137.267 137.688 137.328 137.457 137.449C137.226 137.566 137.046 137.729 136.918 137.938C136.789 138.146 136.724 138.386 136.724 138.659C136.724 138.932 136.789 139.176 136.918 139.392C137.05 139.604 137.232 139.773 137.463 139.898C137.694 140.019 137.955 140.08 138.247 140.08ZM150.48 144.71L150.491 141.398H150.878L153.332 138.273H156.48L152.832 142.75H152.099L150.48 144.71ZM147.974 147V135.364H150.753V147H147.974ZM153.395 147L151.111 143.375L152.94 141.403L156.605 147H153.395ZM157.474 147V138.273H160.116V139.875H160.213C160.395 139.345 160.702 138.926 161.134 138.619C161.565 138.312 162.08 138.159 162.679 138.159C163.285 138.159 163.804 138.314 164.236 138.625C164.668 138.936 164.942 139.352 165.06 139.875H165.151C165.313 139.356 165.632 138.941 166.105 138.631C166.579 138.316 167.137 138.159 167.781 138.159C168.607 138.159 169.277 138.424 169.793 138.955C170.308 139.481 170.565 140.205 170.565 141.125V147H167.787V141.761C167.787 141.326 167.675 140.994 167.452 140.767C167.228 140.536 166.938 140.42 166.582 140.42C166.2 140.42 165.899 140.545 165.679 140.795C165.463 141.042 165.355 141.373 165.355 141.79V147H162.685V141.733C162.685 141.328 162.575 141.008 162.355 140.773C162.135 140.538 161.846 140.42 161.486 140.42C161.243 140.42 161.029 140.479 160.844 140.597C160.658 140.71 160.512 140.873 160.406 141.085C160.304 141.297 160.253 141.547 160.253 141.835V147H157.474Z" fill="white"/>
<circle cx="130" cy="50" r="50" fill="#2E8BC8"/>
<path d="M111.06 22H171.235L174.845 28.0965C174.845 28.0965 177.965 34.7356 178.97 39.2735C179.832 43.1698 180.001 49.4343 180.001 49.4343C180.001 49.4343 166.971 53.4528 158.345 54.5148C148.554 55.72 142.919 55.236 133.079 54.5148C124.42 53.88 111.06 51.4665 111.06 51.4665C111.06 51.4665 120.291 51.4665 121.22 49.9424C122.149 48.4183 118.62 46.3311 116.579 44.3539C107.349 35.4104 84.5959 36.3722 84.6104 35.7172C84.864 24.2187 111.06 22 111.06 22Z" fill="#5EAADC"/>
<path d="M162.47 61.6274C131.521 68.9377 81.001 59.5952 81.001 59.5952L82.5479 65.6917C82.5479 65.6917 95.9098 64.0637 104.204 65.6917C114.715 67.7549 128.954 77.3767 128.954 77.3767C128.954 77.3767 140.478 81.5761 148.032 80.933C151.731 80.6181 157.313 78.9008 157.313 78.9008L174.329 72.8043C174.329 72.8043 175.992 69.828 176.907 67.2159C177.938 64.2727 178.454 62.1354 178.454 62.1354C178.454 62.1354 173.596 59.1371 170.204 59.5952C167.107 60.0136 165.51 60.9093 162.47 61.6274Z" fill="#5EAADC"/>
</svg>
