<svg width="260" height="164" viewBox="0 0 260 164" fill="none" xmlns="http://www.w3.org/2000/svg">
<path d="M1.24829 136.198C0.263488 137.155 0.249419 138.737 1.21686 139.733L16.9823 155.955C17.9497 156.951 19.5323 156.982 20.5171 156.025C21.5019 155.068 21.516 153.485 20.5486 152.489L6.53485 138.07L20.7999 124.206C21.7847 123.249 21.7988 121.666 20.8314 120.671C19.8639 119.675 18.2813 119.644 17.2965 120.601L1.24829 136.198ZM258.752 144.802C259.736 143.845 259.751 142.263 258.783 141.267L243.018 125.045C242.05 124.049 240.468 124.018 239.483 124.975C238.498 125.932 238.484 127.515 239.451 128.511L253.465 142.93L239.2 156.794C238.215 157.751 238.201 159.334 239.169 160.329C240.136 161.325 241.719 161.356 242.703 160.399L258.752 144.802ZM2.97778 140.5L13.5611 140.708L13.6056 135.708L3.02222 135.5L2.97778 140.5ZM34.7278 141.125L55.8944 141.542L55.9389 136.542L34.7722 136.125L34.7278 141.125ZM77.0611 141.958L98.2278 142.375L98.2722 137.375L77.1056 136.958L77.0611 141.958ZM119.394 142.792L140.561 143.208L140.606 138.208L119.439 137.792L119.394 142.792ZM161.728 143.625L182.894 144.042L182.939 139.042L161.772 138.625L161.728 143.625ZM204.061 144.458L225.228 144.875L225.272 139.875L204.106 139.458L204.061 144.458ZM246.394 145.292L256.978 145.5L257.022 140.5L246.439 140.292L246.394 145.292Z" fill="white"/>
<path d="M100.239 151.364V163H97.4318V153.989H97.3636L94.7614 155.58V153.148L97.6307 151.364H100.239ZM108.192 151.364V163H105.385V153.989H105.317L102.714 155.58V153.148L105.584 151.364H108.192ZM115.429 163.159C114.793 163.159 114.183 163.057 113.599 162.852C113.016 162.644 112.497 162.314 112.043 161.864C111.588 161.409 111.23 160.814 110.969 160.08C110.707 159.341 110.579 158.441 110.582 157.381C110.586 156.422 110.704 155.562 110.935 154.801C111.166 154.036 111.495 153.386 111.923 152.852C112.355 152.318 112.87 151.911 113.469 151.631C114.071 151.347 114.743 151.205 115.486 151.205C116.3 151.205 117.018 151.364 117.639 151.682C118.264 151.996 118.764 152.42 119.139 152.955C119.514 153.485 119.736 154.076 119.804 154.727H117.037C116.954 154.36 116.77 154.081 116.486 153.892C116.205 153.699 115.872 153.602 115.486 153.602C114.774 153.602 114.241 153.911 113.889 154.528C113.541 155.146 113.363 155.972 113.355 157.006H113.429C113.588 156.657 113.817 156.358 114.116 156.108C114.416 155.858 114.759 155.667 115.145 155.534C115.535 155.398 115.948 155.33 116.384 155.33C117.08 155.33 117.696 155.491 118.23 155.812C118.764 156.134 119.183 156.576 119.486 157.136C119.789 157.693 119.938 158.331 119.935 159.051C119.938 159.862 119.749 160.578 119.366 161.199C118.984 161.816 118.454 162.297 117.776 162.642C117.101 162.987 116.319 163.159 115.429 163.159ZM115.412 161C115.757 161 116.065 160.919 116.338 160.756C116.611 160.593 116.825 160.371 116.98 160.091C117.135 159.811 117.211 159.494 117.207 159.142C117.211 158.786 117.135 158.47 116.98 158.193C116.829 157.917 116.616 157.697 116.344 157.534C116.075 157.371 115.766 157.29 115.418 157.29C115.164 157.29 114.927 157.337 114.707 157.432C114.488 157.527 114.296 157.659 114.134 157.83C113.974 157.996 113.849 158.193 113.759 158.42C113.668 158.644 113.62 158.886 113.616 159.148C113.62 159.492 113.7 159.805 113.855 160.085C114.01 160.366 114.223 160.589 114.491 160.756C114.76 160.919 115.067 161 115.412 161ZM122.662 163.165C122.253 163.165 121.902 163.021 121.611 162.733C121.323 162.445 121.181 162.097 121.185 161.688C121.181 161.286 121.323 160.943 121.611 160.659C121.902 160.371 122.253 160.227 122.662 160.227C123.048 160.227 123.389 160.371 123.685 160.659C123.984 160.943 124.135 161.286 124.139 161.688C124.135 161.96 124.063 162.208 123.923 162.432C123.787 162.655 123.607 162.833 123.384 162.966C123.164 163.098 122.923 163.165 122.662 163.165ZM125.81 161.068V158.875L130.577 151.364H132.526V154.341H131.395L128.605 158.761V158.852H135.509V161.068H125.81ZM131.429 163V160.398L131.486 159.438V151.364H134.116V163H131.429ZM141.648 163.159C141.011 163.159 140.402 163.057 139.818 162.852C139.235 162.644 138.716 162.314 138.261 161.864C137.807 161.409 137.449 160.814 137.188 160.08C136.926 159.341 136.797 158.441 136.801 157.381C136.805 156.422 136.922 155.562 137.153 154.801C137.384 154.036 137.714 153.386 138.142 152.852C138.574 152.318 139.089 151.911 139.688 151.631C140.29 151.347 140.962 151.205 141.705 151.205C142.519 151.205 143.237 151.364 143.858 151.682C144.483 151.996 144.983 152.42 145.358 152.955C145.733 153.485 145.955 154.076 146.023 154.727H143.256C143.172 154.36 142.989 154.081 142.705 153.892C142.424 153.699 142.091 153.602 141.705 153.602C140.992 153.602 140.46 153.911 140.108 154.528C139.759 155.146 139.581 155.972 139.574 157.006H139.648C139.807 156.657 140.036 156.358 140.335 156.108C140.634 155.858 140.977 155.667 141.364 155.534C141.754 155.398 142.167 155.33 142.602 155.33C143.299 155.33 143.915 155.491 144.449 155.812C144.983 156.134 145.402 156.576 145.705 157.136C146.008 157.693 146.157 158.331 146.153 159.051C146.157 159.862 145.968 160.578 145.585 161.199C145.203 161.816 144.672 162.297 143.994 162.642C143.32 162.987 142.538 163.159 141.648 163.159ZM141.631 161C141.975 161 142.284 160.919 142.557 160.756C142.83 160.593 143.044 160.371 143.199 160.091C143.354 159.811 143.43 159.494 143.426 159.142C143.43 158.786 143.354 158.47 143.199 158.193C143.047 157.917 142.835 157.697 142.562 157.534C142.294 157.371 141.985 157.29 141.636 157.29C141.383 157.29 141.146 157.337 140.926 157.432C140.706 157.527 140.515 157.659 140.352 157.83C140.193 157.996 140.068 158.193 139.977 158.42C139.886 158.644 139.839 158.886 139.835 159.148C139.839 159.492 139.919 159.805 140.074 160.085C140.229 160.366 140.441 160.589 140.71 160.756C140.979 160.919 141.286 161 141.631 161ZM147.607 161.068V158.875L152.374 151.364H154.322V154.341H153.192L150.402 158.761V158.852H157.305V161.068H147.607ZM153.226 163V160.398L153.283 159.438V151.364H155.913V163H153.226ZM164.746 160.71L164.757 157.398H165.143L167.598 154.273H170.746L167.098 158.75H166.365L164.746 160.71ZM162.24 163V151.364H165.018V163H162.24ZM167.661 163L165.376 159.375L167.206 157.403L170.871 163H167.661ZM171.74 163V154.273H174.382V155.875H174.479C174.661 155.345 174.967 154.926 175.399 154.619C175.831 154.312 176.346 154.159 176.945 154.159C177.551 154.159 178.07 154.314 178.501 154.625C178.933 154.936 179.208 155.352 179.325 155.875H179.416C179.579 155.356 179.897 154.941 180.371 154.631C180.844 154.316 181.403 154.159 182.047 154.159C182.873 154.159 183.543 154.424 184.058 154.955C184.573 155.481 184.831 156.205 184.831 157.125V163H182.053V157.761C182.053 157.326 181.941 156.994 181.717 156.767C181.494 156.536 181.204 156.42 180.848 156.42C180.465 156.42 180.164 156.545 179.945 156.795C179.729 157.042 179.621 157.373 179.621 157.79V163H176.95V157.733C176.95 157.328 176.84 157.008 176.621 156.773C176.401 156.538 176.111 156.42 175.751 156.42C175.509 156.42 175.295 156.479 175.109 156.597C174.924 156.71 174.778 156.873 174.672 157.085C174.57 157.297 174.518 157.547 174.518 157.835V163H171.74Z" fill="white"/>
<rect width="4.25594" height="14.746" transform="matrix(0.878922 0.476965 -0.454888 0.890549 187.009 58.833)" fill="#85791B"/>
<rect width="4.29763" height="12.2032" transform="matrix(0.914524 0.404532 -0.384373 0.923178 104.72 12.3745)" fill="#85791B"/>
<ellipse cx="142" cy="49.5" rx="48" ry="49.5" fill="url(#paint0_linear_0_1)"/>
<path d="M187.121 67.3635C200.618 75.0518 215.181 88.378 214.47 89.1102C211.293 95.6211 174.447 83.2529 135.863 63.2456C97.2789 43.2384 68.5766 21.7412 71.7544 15.2303C73.565 11.5207 85.6574 13.4025 102.585 19.4722" stroke="#85791B" stroke-width="15"/>
<defs>
<linearGradient id="paint0_linear_0_1" x1="182.478" y1="67.4667" x2="100.097" y2="28.6383" gradientUnits="userSpaceOnUse">
<stop stop-color="#FDE522"/>
<stop offset="1" stop-color="#AEA028"/>
</linearGradient>
</defs>
</svg>
