<svg width="1457" height="616" viewBox="0 0 1457 616" fill="none" xmlns="http://www.w3.org/2000/svg">
<path d="M133.227 391.564L145.821 379.638L339.454 138C339.454 138 379.642 123.685 401.939 138C406.729 141.075 412.959 147.174 412.959 147.174C412.959 147.174 396.842 141.938 387.771 145.339C382.418 147.346 377.343 148.598 376.227 153.596C375.007 159.057 380.122 162.106 385.147 165.522C390.571 169.208 395.683 167.626 401.939 170.109C407.124 172.166 414.534 176.53 414.534 176.53C414.534 176.53 402.403 176.674 399.84 181.576C398.307 184.509 398.308 186.9 399.84 189.832C402.202 194.351 408.398 192.373 412.959 195.337C416.448 197.603 420.831 202.217 420.831 202.217C420.831 202.217 414.886 200.059 410.86 199.465C406.011 198.749 402.925 198.088 398.266 199.465C393.294 200.934 388.813 202.307 387.771 206.804C386.77 211.122 397.7 214.459 401.9 216.895C405.522 218.996 412.92 218.271 412.92 218.271C412.92 218.271 407.672 223.056 406.623 223.776C402.942 226.299 397.613 224.944 396.128 228.821C393.973 234.447 405.905 232.613 411.345 236.16C418.903 241.089 427.613 251.756 427.613 251.756C427.613 251.756 410.773 245.821 399.276 247.036L398.227 247.169C391.512 248.174 383.61 246.896 381.959 252.673C380.272 258.577 413.334 258.91 416.068 264.506C417.947 268.352 418.167 275.056 418.167 275.056C418.167 275.056 405.914 266.494 398.751 269.552C388.623 273.875 412.101 280.512 416.068 289.734C419.128 296.848 419.217 308.999 419.217 308.999C419.217 308.999 411.716 293.246 401.375 290.652C392.953 288.538 384.262 287.988 379.335 294.321C375.418 299.357 375.749 304.695 379.335 309.917C381.468 313.021 386.732 315.171 390.208 316.309C392.208 316.817 393.504 317.256 393.504 317.256C393.504 317.256 392.129 316.937 390.208 316.309C385.076 315.003 375.309 313.238 370.939 317.256C363.108 324.456 382.439 330.302 383.534 340.19C385.633 359.161 374.088 367.253 374.088 367.253C374.088 367.253 373.315 355.648 369.365 349.364C365.873 343.809 363.783 339.052 356.771 337.438C349.938 335.865 343.643 337.051 339.454 342.025C333.88 348.644 346.276 362.208 346.276 362.208C346.276 362.208 340.689 361.511 337.355 360.373C333.59 359.088 328.434 352.253 328.434 355.786C328.434 358.538 332.271 370.15 328.434 378.262C324.725 386.105 311.118 393.858 311.118 393.858C311.118 393.858 310.683 356.625 301.147 364.96C298.524 367.253 302.131 377.336 298.524 384.225C295.553 389.898 286.979 396.61 286.979 396.61C286.979 396.61 290.817 384.219 283.831 379.638C281.732 378.262 279.363 393.692 271.761 399.362C264.463 404.806 248.672 406.701 248.672 406.701C248.672 406.701 262.84 375.51 241.326 379.638C231.268 381.568 223.484 396.61 223.484 396.61C223.484 396.61 220.86 390.647 219.286 392.482C211.843 401.156 223.484 420.003 223.484 420.003C223.484 420.003 204.381 416.82 195.672 409.912C187.785 403.656 185.177 393.858 182.029 389.271C179.981 386.288 176.256 396.61 176.256 396.61C176.256 396.61 173.729 387.6 168.385 386.06C162.635 384.403 160.097 390.301 154.217 391.564C146.256 393.274 133.227 391.564 133.227 391.564Z" fill="#FD0C0C"/>
<path d="M321.752 56.2076C321.752 56.2076 302.144 62.0637 304.165 65.2008L328.52 67.7494C328.52 67.7494 316.354 70.0848 314.806 71.9793C313.22 73.9188 310.507 76.3868 311.234 78.7991C312.181 81.9437 321.241 83.6249 324.414 83.9995C327.713 84.3889 336.615 77.1546 336.615 77.1546C336.615 77.1546 328.953 84.3912 328.466 87.1306C327.354 93.3871 334.414 98.8878 341.644 93.9019C343.169 92.8497 352.374 68.2048 352.374 68.2048C352.374 68.2048 355.899 78.1466 355.89 81.2895C355.845 97.5276 352.031 104.901 353.79 106.438C356.132 108.485 354.768 108.007 357.846 107.998C360.923 107.989 362.388 105.839 365.465 105.881C371.731 105.966 378.634 115.271 378.634 115.271C378.634 115.271 369.14 108.739 363.926 111.647C361.327 113.096 359.446 114.445 358.834 117.424C358.588 118.626 358.36 119.44 358.826 120.566C359.661 122.589 362.374 122.128 363.895 122.647C365.416 123.167 374.052 120.523 374.052 120.523C374.052 120.523 367.561 122.801 365.408 126.309C364.598 127.629 363.616 128.447 363.875 129.98C364.322 132.628 370.977 131.008 370.977 131.008L357.756 139.95L300.487 83.6698C273.617 136.399 138.713 271.026 89.704 302.282C89.704 302.282 47.7495 313.603 26.5432 296.652C21.9877 293.011 16.2577 286.084 16.2577 286.084C16.2577 286.084 32.0616 293.001 41.5475 290.268C47.1456 288.656 52.3916 287.806 53.9851 282.691C55.7264 277.101 50.8392 273.458 46.0774 269.44C40.9382 265.103 35.6234 266.293 29.5304 263.139C24.4809 260.525 17.3976 255.302 17.3976 255.302C17.3976 255.302 29.6731 256.244 32.719 251.359C34.5415 248.436 34.7637 245.941 33.4871 242.742C31.5205 237.813 25.0732 239.318 20.7386 235.814C17.4227 233.134 13.4223 227.924 13.4223 227.924C13.4223 227.924 19.2299 230.712 23.2444 231.695C28.0799 232.879 31.1369 233.847 35.9746 232.829C41.1374 231.744 45.7944 230.714 47.266 226.115C48.6793 221.698 37.9422 217.23 33.9233 214.309C30.4574 211.79 22.9124 211.88 22.9124 211.88C22.9124 211.88 28.6618 207.359 29.7896 206.702C33.7449 204.4 39.0058 206.295 40.8676 202.382C43.5692 196.704 31.3371 197.543 26.168 193.35C18.9872 187.525 11.1757 175.607 11.1757 175.607C11.1757 175.607 27.6452 183.319 39.3796 183.087L40.4529 183.042C47.3334 182.598 55.2021 184.644 57.4083 178.763C59.6628 172.753 26.274 169.427 24.0314 163.339C22.4902 159.156 22.8912 152.139 22.8912 152.139C22.8912 152.139 34.4801 162.179 42.0049 159.633C52.6447 156.034 29.5302 146.99 26.3785 137.008C23.9473 129.307 24.9883 116.616 24.9883 116.616C24.9883 116.616 31.1048 133.734 41.3158 137.374C49.6318 140.339 58.3658 141.696 63.9352 135.53C68.364 130.626 68.5256 125.025 65.3861 119.252C63.5194 115.819 58.3985 113.101 54.9903 111.601C53.0167 110.89 51.7473 110.315 51.7473 110.315C51.7473 110.315 53.1075 110.772 54.9903 111.601C60.057 113.426 69.7652 116.148 74.5557 112.348C83.1414 105.539 64.1452 97.6956 63.9592 87.2757C63.6025 67.2857 76.0247 59.8801 76.0247 59.8801C76.0247 59.8801 75.7262 72.0628 79.1343 78.9772C82.1471 85.0897 83.8172 90.2432 90.7549 92.5596C97.5159 94.817 103.988 94.1467 108.686 89.3323C114.936 82.9264 103.668 67.6523 103.668 67.6523C103.668 67.6523 109.25 68.8833 112.514 70.3711C116.201 72.0514 120.776 79.65 121.105 75.9625C121.361 73.0899 118.563 60.6239 123.196 52.5033C127.676 44.651 142.151 37.7856 142.151 37.7856C142.151 37.7856 139.127 76.6863 149.541 68.8459C152.406 66.6885 149.698 55.84 153.985 48.9743C157.515 43.3209 166.807 37.088 166.807 37.088C166.807 37.088 161.774 49.6755 168.41 55.086C170.404 56.7113 174.234 40.8198 182.445 35.5866C190.329 30.5622 206.467 30.0068 206.467 30.0068C206.467 30.0068 189.243 61.286 211.375 58.9157C221.721 57.8076 230.988 42.8089 230.988 42.8089C230.988 42.8089 233.086 49.2692 234.848 47.496C243.178 39.1128 233.165 18.3923 233.165 18.3923C233.165 18.3923 252.179 23.4361 260.339 31.4309C267.729 38.6714 269.454 49.133 272.209 54.2042C274.001 57.5016 278.727 47.0642 278.727 47.0642C278.727 47.0642 280.443 56.6956 285.702 58.7849C291.36 61.0329 294.474 55.105 300.535 54.3163C308.741 53.2486 321.752 56.2076 321.752 56.2076Z" fill="#FD0C0C"/>
<path d="M38.2261 324.5C38.8071 318.678 41.2884 315.735 44.7261 311C51.2487 302.016 80.226 289.5 80.226 289.5L166.226 362.5L132.226 392C132.226 392 134.039 386.596 134.226 383C134.538 376.993 134.924 372.308 130.726 368C127.613 364.805 124.632 362.797 120.226 363.5C115.038 364.328 113.487 368.758 111.226 373.5C108.849 378.485 109.226 387.5 109.226 387.5C109.226 387.5 104.019 379.395 103.226 373.5C102.383 367.232 103.226 371 105.726 357.5C106.728 352.09 99.2261 370 99.2261 370C99.2261 370 97.1789 362.386 97.7261 357.5C98.2552 352.775 101.726 346 101.726 346L93.8526 352.484C93.4666 352.814 93.2261 353 93.2261 353L93.8526 352.484C95.5923 350.996 100.286 346.573 99.2261 343C98.3219 339.953 96.3019 338.302 93.2261 337.5C89.6411 336.565 87.9029 340.955 84.2261 340.5C79.1542 339.873 74.7261 331.5 74.7261 331.5C74.7261 331.5 81.2393 336.408 84.2261 334C87.1145 331.672 85.9345 327.793 84.2261 324.5C82.4802 321.135 79.7709 320.345 76.2261 319C67.7685 315.792 59.8183 317.814 53.7261 324.5C47.9741 330.813 49.7261 346 49.7261 346C49.7261 346 37.2806 333.975 38.2261 324.5Z" fill="#FD0C0C"/>
<circle cx="221.227" cy="219" r="150" fill="#FF9900"/>
<path d="M220.226 361C205.726 363 182.726 361 182.726 361C182.726 361 174.933 363.365 171.726 360.5C166.654 355.969 182.726 347 182.726 347C182.726 351.5 240.226 340 237.726 347C234.782 355.242 228.896 359.804 220.226 361Z" fill="#FF7C00"/>
<path d="M326.726 325C326.726 325 215.726 316.5 198.726 325C198.726 325 145.726 344.5 132.726 340C119.011 335.252 129.852 315.862 120.226 305C110.901 294.477 96.8647 299.593 88.226 288.5C83.1219 281.946 79.726 269 79.726 269C79.726 269 80.226 236.934 113.226 243.467C146.226 250 237.726 252 237.726 252C248.504 258.032 297.791 232.744 326.726 252C335.695 257.969 349.599 260.617 346.726 271C343.922 281.134 328.726 278 320.726 278C262.733 278 194.226 264.5 172.226 278C160.684 285.083 152.124 290.391 148.726 303.5C145.226 317 337.726 313.5 337.726 313.5L332.726 319.5L326.726 325Z" fill="#FF7C00"/>
<path d="M277.726 232C253.189 233.798 226.726 227.5 213.226 232C199.726 236.5 159.641 231.325 147.726 223.544C80.726 200.5 328.119 202.484 337.726 223C337.726 223 301.934 230.226 277.726 232Z" fill="#FF7C00"/>
<path d="M303.726 177C281.307 186.651 275.009 165.97 241.226 177C241.226 177 180.04 191.367 144.226 179C121.179 171.042 74.3243 163.573 91.226 146C103.679 133.053 119.262 145.95 137.226 146C215.535 146.219 337.726 149 337.726 149C343.165 165.318 319.525 170.198 303.726 177Z" fill="#FF7C00"/>
<path d="M276.226 124.5C322.226 136 178.726 131.5 148.726 121C118.726 110.5 122.858 103.309 129.726 100.5C136.594 97.6905 144.226 99.3999 147.726 98C150.226 97 152.242 87.4145 157.726 83C162.98 78.7711 173.726 76.5 173.726 76.5L198.726 70.5C198.726 70.5 207.478 74.3752 213.226 76.5C228.729 82.2307 240.57 77.6891 254.226 87C265.226 94.5 167.226 100.5 157.726 103.5C113.118 117.586 273.316 123.772 276.226 124.5Z" fill="#FF7C00"/>
<path d="M129.726 199C202.726 182.972 73.726 194.5 73.726 194.5C73.726 194.5 69.726 208.5 71.726 214C72.7112 216.709 78.226 217.5 78.226 217.5C78.226 217.5 85.3008 221.879 90.226 221.5C95.9021 221.063 104.27 219.479 102.726 214C101.783 210.654 97.8854 211.225 95.726 208.5C87.1628 197.696 116.26 201.957 129.726 199Z" fill="#FF7C00"/>
<path d="M376.227 219C376.227 302.844 306.711 371 220.727 371C134.742 371 65.2266 302.844 65.2266 219C65.2266 135.156 134.742 67 220.727 67C306.711 67 376.227 135.156 376.227 219Z" stroke="#FD0C0C" stroke-width="10"/>
<circle cx="469" cy="248" r="30" fill="#E9CEA6"/>
<path d="M468.421 272.329C463.776 272.898 456.386 275.119 456.386 275.119C456.386 275.119 462.981 278.714 471.752 277.872C479.463 277.133 485.164 273.122 485.164 273.122C485.164 273.122 474.88 271.537 468.421 272.329Z" fill="#E5A663"/>
<path d="M494.556 263.535C494.556 263.535 479.116 262.699 469.532 264.568C465.351 265.382 463 265.923 458.984 267.339C455.414 268.598 450.102 271.22 450.102 271.22C450.102 271.22 450.391 271.524 450.991 271.923C451.315 272.14 451.79 272.522 451.79 272.522C451.79 272.522 459.267 268.516 463.98 267.894C466.13 267.61 475.135 267.339 477.303 267.339C485.758 267.339 491.359 267.929 491.359 267.929C491.359 267.929 492.366 266.737 492.958 265.932C493.773 264.823 494.556 263.535 494.556 263.535Z" fill="#E5A663"/>
<path d="M464.535 261.241C457.562 262.936 447.593 269.127 447.593 269.127L443.796 264.534C443.796 264.534 449.321 260.194 453.433 259.024C456.984 258.014 459.186 258.712 462.87 258.469C468.511 258.098 477.303 257.361 477.303 257.361L497.754 256.346L497.354 257.544L496.954 258.742C496.954 258.742 486.362 259.905 480.079 260.133C473.997 260.353 470.448 259.804 464.535 261.241Z" fill="#E5A663"/>
<path d="M453.433 251.263C448.08 252.452 439.999 255.746 439.999 255.746L440.665 257.915C440.665 257.915 448.279 258.139 452.878 256.806C455.585 256.022 456.823 254.785 459.539 254.034C466.02 252.245 470.024 254.62 476.748 254.589C485.214 254.549 498.353 253.949 498.353 253.949L498.553 252.751L498.753 251.552C498.753 251.552 494.216 250.154 491.181 250.154C485.545 250.154 482.384 250.052 476.748 250.154C467.634 250.319 462.331 249.285 453.433 251.263Z" fill="#E5A663"/>
<path d="M464.535 225.207L447.793 226.788C447.793 226.788 452.19 222.194 457.319 220.218C461.643 218.552 464.342 217.988 468.976 218C472.932 218.01 475.237 218.352 478.969 219.663C482.723 220.982 487.85 224.653 487.85 224.653L464.535 225.207Z" fill="#E5A663"/>
<path d="M453.433 247.936C447.846 249.015 439.2 251.552 439.2 251.552L439 248.625V247.558C439 247.558 447.427 244.14 452.878 243.501C459.137 242.768 463.61 242.762 468.976 242.393C474.343 242.023 477.756 243.485 483.41 243.501C489.279 243.518 498.398 242.393 498.398 242.393C498.398 242.393 498.845 244.064 498.953 245.161C499.059 246.24 498.953 247.936 498.953 247.936H483.965L473.417 247.382C473.417 247.382 461.098 246.456 453.433 247.936Z" fill="#E5A663"/>
<path d="M459.539 239.621C451.949 239.523 440.199 239.569 440.199 239.569C440.199 239.569 440.399 238.703 440.599 238.171C440.799 237.637 440.998 237.173 440.998 237.173C440.998 237.173 453.405 236.579 461.205 236.849C467.935 237.081 471.679 237.931 478.413 237.958C485.58 237.986 496.755 236.773 496.755 236.773C496.755 236.773 497.148 237.737 497.354 238.371C497.579 239.065 497.954 240.368 497.954 240.368C497.954 240.368 494.803 240.572 492.847 240.73C487.66 241.147 480.079 240.73 479.524 240.73C478.969 240.73 467.355 239.721 459.539 239.621Z" fill="#E5A663"/>
<path d="M461.76 232.968L443.397 232.38L444.396 230.782C444.396 230.782 447.541 229.54 449.547 229.088C453.988 228.086 456.652 229.088 461.205 229.088H476.193H492.291C492.291 229.088 493.522 230.544 494.157 231.581C494.847 232.708 495.755 234.377 495.755 234.377L491.181 234.077L475.083 232.968H461.76Z" fill="#E5A663"/>
<circle cx="800" cy="223" r="49.5" fill="#FF6459" />
<path d="M774.415 216.538C775.334 214.358 776.855 214.174 779.2 214.013C781.546 213.851 782.175 215.256 783.758 216.538C785.083 217.61 787.893 218.232 786.72 219.751C785.547 221.27 783.37 223.611 781.479 223.882C778.859 224.258 776.579 223.796 775.099 221.587C773.993 219.938 773.642 218.369 774.415 216.538Z" fill="#D70000"/>
<path d="M815.517 252.366C821.326 255.826 821.079 268.61 821.079 268.61L817.519 269.927L813.515 271.244L811.735 271.683L806.84 272.561L799.276 273L793.937 272.561L791.267 272.122L788.153 271.463L783.258 269.927L779.476 268.39L776.139 266.634L771.69 263.78L769.91 262.463L766.796 259.829L762.791 255.659L761.011 253.463L759.676 251.707L757.897 248.854L755.672 244.683L753.892 240.512L752.78 237.22L752.112 234.805L751.667 232.61L751.222 229.976L751 226.902L755.004 225.805C755.004 225.805 760.317 224.253 763.236 225.585C766.093 226.889 768.353 231.732 768.353 231.732L774.36 242.049C776.705 246.078 778.034 240.609 780.366 239.634C783.696 238.242 785.206 235.771 788.82 235.902C791.209 235.99 792.81 236.319 794.604 237.878C797.293 240.214 795.835 243.263 796.829 246.659C797.691 249.601 797.224 251.823 799.276 254.122C803.494 258.846 810.055 249.112 815.517 252.366Z" fill="#DD0000"/>
<path d="M835.539 243.146C839.515 246.277 837.319 255.878 837.319 255.878L837.542 256.098L838.876 254.561L841.546 251.049L843.771 247.317L845.551 243.805L846.885 240.512L848.22 236.341L849.11 232.61L849.555 229.537L850 225.146V222.073L849.555 216.366L849.11 213.732L848.665 211.537L847.775 208.463L846.885 205.829L845.328 202.098L842.881 197.488L840.879 194.415C840.879 194.415 837.517 194.555 835.539 195.293C832.417 196.458 831.255 198.262 828.865 200.561C823.326 205.89 824.872 213.183 818.187 217.024C812.58 220.245 807.001 215.496 801.724 219.22C797.528 222.179 793.967 225.145 794.604 230.195C795.197 234.889 798.509 237.485 803.058 238.976C807.037 240.28 809.616 237.119 813.737 237.878C818.093 238.681 819.455 242.066 823.748 243.146C828.21 244.269 831.94 240.312 835.539 243.146Z" fill="#DD0000"/>
<path d="M756.117 211.537C754.599 211.909 752.112 211.537 752.112 211.537L752.557 209.78L753.892 205.829L754.337 204.512L755.672 201.659L757.897 197.488L759.231 195.293L760.789 193.098L762.569 190.902L765.461 187.829L773.247 181.463L782.591 176.634L789.043 174.659L793.047 174V177.293L795.717 181.683L797.719 186.732C797.719 186.732 798.087 190.075 797.052 191.78C796.228 193.136 793.937 194.415 793.937 194.415C793.937 194.415 790.109 194.505 788.153 195.732C785.773 197.224 785.945 199.515 784.148 201.659C782.504 203.62 781.95 205.545 779.476 206.268C776.91 207.019 775.321 205.626 772.802 204.732C770.243 203.823 769.29 201.783 766.573 201.659C764.888 201.581 763.889 201.865 762.346 202.537C758.399 204.254 760.303 210.51 756.117 211.537Z" fill="#DD0000"/>
<path d="M830.867 190.902C832.118 189.144 833.537 186.073 833.537 186.073L829.978 183.22L826.196 180.585L822.636 178.61L818.854 176.854L814.849 175.537L812.18 174.659C812.18 174.659 809.998 176.534 808.843 177.951C807.74 179.304 806.891 180.017 806.396 181.683C805.906 183.328 806.673 184.381 806.396 186.073C806.07 188.054 805.505 189.098 804.616 190.902C801.661 196.9 789.236 196.742 792.157 202.756C792.826 204.132 794.604 205.829 794.604 205.829C794.604 205.829 800.011 203.653 803.058 204.951C805.484 205.985 805.268 208.835 807.73 209.78C810.333 210.779 812.435 210.507 814.849 209.122C818.282 207.153 816.574 203.109 818.854 199.902C822.237 195.144 827.483 195.659 830.867 190.902Z" fill="#DD0000"/>
<circle cx="601" cy="384" r="45" fill="#0399FC"/>
<path d="M587.691 413.338C587.691 413.338 588.996 421.281 588.213 422.872C587.691 423.931 581.415 418.105 580.91 417.046C580.004 415.147 581.769 412.596 579.866 411.749C578.933 411.334 578.224 412.076 577.258 411.749C574.525 410.824 576.736 405.393 576.215 404.334C575.724 403.337 574.56 403.825 573.606 403.274C570.114 401.258 568.39 394.27 568.39 394.27C568.39 394.27 568.942 389.851 567.868 387.384C566.704 384.709 563.902 384.723 562.652 382.088C562.008 380.731 562.059 379.815 561.608 378.38C560.746 375.635 559 371.495 559 371.495L561.087 365.668L564.217 360.372L567.347 356.134L570.476 352.956L574.65 349.249C574.65 349.249 577.491 346.007 579.866 346.071C581.154 346.105 581.749 346.803 582.996 347.13C586.552 348.063 589.937 344.881 592.386 347.66C592.876 348.215 593.358 348.506 593.429 349.249C593.556 350.567 591.448 350.206 590.821 351.367C590.038 352.818 591.545 354.122 590.821 355.605C589.967 357.353 588.169 357.06 586.648 358.253C584.023 360.311 583.693 362.779 580.91 364.609C578.368 366.28 576.279 365.81 573.606 367.257C570.406 368.99 567.08 369.486 566.303 373.083C566.041 374.296 566.037 375.05 566.303 376.261C567.217 380.418 572.317 379.031 575.693 381.558C578.594 383.73 582.475 387.914 582.475 387.914L587.691 390.033C587.691 390.033 591.566 392.302 592.386 394.8C592.966 396.566 592.886 397.776 592.386 399.567C591.675 402.115 588.462 402.226 588.213 404.863C588.028 406.817 589.778 409.63 589.778 409.63L587.691 413.338Z" fill="#1A4708"/>
<path d="M622.121 410.16C623.023 412.696 620.381 415.631 622.642 417.046C625.244 418.673 626.912 414.633 628.902 412.279C630.45 410.448 630.268 408.598 632.032 406.982C633.86 405.308 636.188 406.248 637.77 404.334C640.127 401.481 639.234 398.213 637.77 394.8C637.296 393.694 636.35 393.349 636.205 392.151C635.924 389.829 639.859 390.194 640.379 387.914C640.802 386.056 639.749 385.007 639.335 383.147C638.737 380.455 636.845 378.856 637.77 376.261C638.659 373.771 643.277 374.657 642.987 372.024C642.915 371.374 642.465 370.435 642.465 370.435C642.465 370.435 641.405 366.794 640.379 364.609C639.356 362.431 638.603 361.294 637.249 359.312C635.435 356.657 634.299 355.224 632.032 352.956C629.448 350.372 628.136 348.392 624.729 347.13C619.505 345.195 614.926 345.647 610.644 349.249C607.9 351.557 605.786 353.579 605.949 357.194C606.017 358.698 606.017 359.767 606.993 360.901C609.157 363.419 611.739 356.54 614.817 357.723C616.305 358.295 616.506 359.687 617.947 360.372C620.346 361.511 624.729 360.372 624.729 360.372C624.729 360.372 636.205 367.257 634.119 368.317C632.032 369.376 626.294 367.787 626.294 367.787L623.686 366.728H613.774C613.774 366.728 604.421 372.329 603.341 378.38C602.978 380.415 602.894 381.659 603.341 383.677C603.901 386.205 604.056 388.664 606.471 389.503C607.627 389.905 608.417 389.814 609.601 389.503C611.297 389.058 613.252 386.855 613.252 386.855C613.252 386.855 622.642 385.266 623.686 387.384C624.729 389.503 623.913 389.025 623.686 390.033C623.294 391.767 620.886 391.972 621.077 393.74C621.177 394.66 621.881 394.967 622.121 395.859C622.442 397.056 622.377 397.823 622.121 399.037C621.574 401.627 618.067 401.688 617.947 404.334C617.82 407.144 621.179 407.514 622.121 410.16Z" fill="#1A4708"/>
<path d="M587.691 413.338C587.691 413.338 588.996 421.281 588.213 422.872C587.691 423.931 581.415 418.105 580.91 417.046C580.004 415.147 581.769 412.596 579.866 411.749C578.933 411.334 578.224 412.076 577.258 411.749C574.525 410.824 576.736 405.393 576.215 404.334C575.724 403.337 574.56 403.825 573.606 403.274C570.114 401.258 568.39 394.27 568.39 394.27C568.39 394.27 568.942 389.851 567.868 387.384C566.704 384.709 563.902 384.723 562.652 382.088C562.008 380.731 562.059 379.815 561.608 378.38C560.746 375.635 559 371.495 559 371.495L561.087 365.668L564.217 360.372L567.347 356.134L570.476 352.956L574.65 349.249C574.65 349.249 577.491 346.007 579.866 346.071C581.154 346.105 581.749 346.803 582.996 347.13C586.552 348.063 589.937 344.881 592.386 347.66C592.876 348.215 593.358 348.506 593.429 349.249C593.556 350.567 591.448 350.206 590.821 351.367C590.038 352.818 591.545 354.122 590.821 355.605C589.967 357.353 588.169 357.06 586.648 358.253C584.023 360.311 583.693 362.779 580.91 364.609C578.368 366.28 576.279 365.81 573.606 367.257C570.406 368.99 567.08 369.486 566.303 373.083C566.041 374.296 566.037 375.05 566.303 376.261C567.217 380.418 572.317 379.031 575.693 381.558C578.594 383.73 582.475 387.914 582.475 387.914L587.691 390.033C587.691 390.033 591.566 392.302 592.386 394.8C592.966 396.566 592.886 397.776 592.386 399.567C591.675 402.115 588.462 402.226 588.213 404.863C588.028 406.817 589.778 409.63 589.778 409.63L587.691 413.338Z" stroke="#1A4708"/>
<path d="M622.121 410.16C623.023 412.696 620.381 415.631 622.642 417.046C625.244 418.673 626.912 414.633 628.902 412.279C630.45 410.448 630.268 408.598 632.032 406.982C633.86 405.308 636.188 406.248 637.77 404.334C640.127 401.481 639.234 398.213 637.77 394.8C637.296 393.694 636.35 393.349 636.205 392.151C635.924 389.829 639.859 390.194 640.379 387.914C640.802 386.056 639.749 385.007 639.335 383.147C638.737 380.455 636.845 378.856 637.77 376.261C638.659 373.771 643.277 374.657 642.987 372.024C642.915 371.374 642.465 370.435 642.465 370.435C642.465 370.435 641.405 366.794 640.379 364.609C639.356 362.431 638.603 361.294 637.249 359.312C635.435 356.657 634.299 355.224 632.032 352.956C629.448 350.372 628.136 348.392 624.729 347.13C619.505 345.195 614.926 345.647 610.644 349.249C607.9 351.557 605.786 353.579 605.949 357.194C606.017 358.698 606.017 359.767 606.993 360.901C609.157 363.419 611.739 356.54 614.817 357.723C616.305 358.295 616.506 359.687 617.947 360.372C620.346 361.511 624.729 360.372 624.729 360.372C624.729 360.372 636.205 367.257 634.119 368.317C632.032 369.376 626.294 367.787 626.294 367.787L623.686 366.728H613.774C613.774 366.728 604.421 372.329 603.341 378.38C602.978 380.415 602.894 381.659 603.341 383.677C603.901 386.205 604.056 388.664 606.471 389.503C607.627 389.905 608.417 389.814 609.601 389.503C611.297 389.058 613.252 386.855 613.252 386.855C613.252 386.855 622.642 385.266 623.686 387.384C624.729 389.503 623.913 389.025 623.686 390.033C623.294 391.767 620.886 391.972 621.077 393.74C621.177 394.66 621.881 394.967 622.121 395.859C622.442 397.056 622.377 397.823 622.121 399.037C621.574 401.627 618.067 401.688 617.947 404.334C617.82 407.144 621.179 407.514 622.121 410.16Z" stroke="#1A4708"/>
<circle cx="583" cy="94" r="40" fill="#EA5A1F"/>
<path d="M568.706 66.0983L552.001 68.9767C551.404 69.5524 550.211 71.2795 550.211 71.2795C550.211 71.2795 549.607 72.0591 548.421 74.158L581.832 68.9767L611.664 66.0983L609.277 63.7955C609.277 63.7955 590.947 62.0056 579.446 63.7955C575.204 64.4556 568.706 66.0983 568.706 66.0983Z" fill="#D14528"/>
<path d="M556.177 96.6099L543.648 101.215C543.648 101.215 543.168 98.419 543.051 96.6099C542.936 94.8148 543.051 92.0044 543.051 92.0044L553.194 85.6718C553.194 85.6718 559.474 82.1119 563.933 81.0663C569.82 79.6861 573.706 82.9363 579.446 81.0663C581.914 80.2621 582.971 79.066 585.412 78.1878C590.693 76.288 594.265 77.7825 599.731 76.4607C605.817 74.9893 615.84 71.2795 615.84 71.2795C615.84 71.2795 617.392 73.6855 618.227 75.3093C619.592 77.9647 620.017 79.3392 620.017 79.3392C620.017 79.3392 610.037 79.2896 603.311 79.9149C596.216 80.5745 585.412 83.369 585.412 83.369L568.706 89.1259L556.177 96.6099Z" fill="#D14528"/>
<path d="M544.245 104.67L545.438 108.124C545.438 108.124 553.082 109.799 557.967 109.275C565.634 108.454 575.866 101.215 575.866 101.215L590.782 98.337L606.891 93.1558L623 90.853L621.807 84.5204C621.807 84.5204 607.425 83.7862 598.538 85.6718C591.267 87.2147 580.639 92.0044 580.639 92.0044L560.95 101.215L544.245 104.67Z" fill="#D14528"/>
<path d="M568.706 123.092C565.383 124.314 559.757 127.122 559.757 127.122C559.757 127.122 561.149 128.262 562.144 128.849C563.033 129.373 564.53 130 564.53 130L583.026 124.819C583.026 124.819 589.093 122.582 593.168 121.94C598.457 121.108 605.943 122.516 606.891 121.94C609.266 120.499 611.067 116.883 611.664 116.759C613.275 116.424 615.84 117.335 615.84 117.335C615.84 117.335 618.674 113.241 619.42 111.578C620.006 110.273 620.613 108.124 620.613 108.124C620.613 108.124 596.685 106.38 581.832 109.275C569.48 111.683 550.211 117.335 550.211 117.335C550.211 117.335 550.915 118.403 551.404 119.062C552.656 120.747 554.984 123.092 554.984 123.092C554.984 123.092 563.918 119.45 569.9 117.91C581.212 114.999 599.731 115.032 599.731 115.032C599.731 115.032 589.198 120.439 581.832 121.94C576.796 122.967 573.516 121.323 568.706 123.092Z" fill="#D14528"/>
<circle cx="941" cy="527" r="75" fill="#72634D"/>
<path d="M867.145 540.168L1014.72 541.317C1014.1 543.537 1013.94 545.003 1013.29 547.329C1012.61 549.816 1012.01 551.04 1011.29 553.626L869.435 549.328L868.576 546.179L867.718 543.031L867.145 540.168Z" fill="#937D65"/>
<path d="M879.614 570.429L996.656 577C996.656 577 1002.02 570.231 1004.98 565.571C1007.98 560.845 1011 553.286 1011 553.286L869 549L871.008 554.714L879.614 570.429Z" fill="#E0C29B"/>
<path d="M891.11 583.571L989.36 585C989.36 585 994.162 580.968 996.542 578.429C998.873 575.941 1002 571.571 1002 571.571C1002 571.571 932.622 581.078 893.695 565.571C884.659 561.972 871 555 871 555C871 555 874.447 563.571 878.757 569.571C885.939 579.571 891.11 583.571 891.11 583.571Z" fill="#937D65"/>
<path d="M866.859 516H1015.14C1015.14 516 1016.06 523.56 1016 528.422C1015.92 533.754 1014.57 542 1014.57 542H867.431L866 530.444V523.222L866.859 516Z" fill="#BF8E62"/>
<path d="M968.103 517.103L866 520.839C866 520.839 866.612 514.663 867.434 510.782C868.28 506.786 870.302 500.724 870.302 500.724L900.99 503.31L1010.55 499C1010.55 499 1013.13 505.609 1014.28 511.069C1015.38 516.322 1016 524 1016 524L1005.39 520.839L995.35 518.828L968.103 517.103Z" fill="#E0C29B"/>
<path d="M879.857 484H1002.43C1002.43 484 1006.28 489.51 1008.14 493.37C1009.79 496.789 1011 499.617 1011 499.617L869 507C869 507 870.755 501.037 873.571 495.074C875.695 490.579 879.857 484 879.857 484Z" fill="#937D65"/>
<rect width="4.25594" height="14.746" transform="matrix(0.878922 0.476965 -0.454888 0.890549 1153.01 171.833)" fill="#85791B"/>
<rect width="4.29763" height="12.2032" transform="matrix(0.914524 0.404532 -0.384373 0.923178 1070.72 125.375)" fill="#85791B"/>
<ellipse cx="1108" cy="162.5" rx="48" ry="49.5" fill="url(#paint0_linear_117_2)"/>
<path d="M1153.12 180.364C1166.62 188.052 1181.18 201.378 1180.47 202.11C1177.29 208.621 1140.45 196.253 1101.86 176.246C1063.28 156.239 1034.58 134.741 1037.75 128.231C1039.56 124.521 1051.66 126.403 1068.59 132.472" stroke="#85791B" stroke-width="15"/>
<circle cx="1324" cy="557" r="50" fill="#2E8BC8"/>
<path d="M1305.06 529H1365.24L1368.84 535.097C1368.84 535.097 1371.97 541.736 1372.97 546.273C1373.83 550.17 1374 556.434 1374 556.434C1374 556.434 1360.97 560.453 1352.34 561.515C1342.55 562.72 1336.92 562.236 1327.08 561.515C1318.42 560.88 1305.06 558.467 1305.06 558.467C1305.06 558.467 1314.29 558.467 1315.22 556.942C1316.15 555.418 1312.62 553.331 1310.58 551.354C1301.35 542.41 1278.6 543.372 1278.61 542.717C1278.86 531.219 1305.06 529 1305.06 529Z" fill="#5EAADC"/>
<path d="M1356.47 568.627C1325.52 575.938 1275 566.595 1275 566.595L1276.55 572.692C1276.55 572.692 1289.91 571.064 1298.2 572.692C1308.72 574.755 1322.95 584.377 1322.95 584.377C1322.95 584.377 1334.48 588.576 1342.03 587.933C1345.73 587.618 1351.31 585.901 1351.31 585.901L1368.33 579.804C1368.33 579.804 1369.99 576.828 1370.91 574.216C1371.94 571.273 1372.45 569.135 1372.45 569.135C1372.45 569.135 1367.6 566.137 1364.2 566.595C1361.11 567.014 1359.51 567.909 1356.47 568.627Z" fill="#5EAADC"/>
<circle cx="1235" cy="373" r="50" fill="#1D66D3"/>
<defs>
<linearGradient id="paint0_linear_117_2" x1="1148.48" y1="180.467" x2="1066.1" y2="141.638" gradientUnits="userSpaceOnUse">
<stop stop-color="#FDE522"/>
<stop offset="1" stop-color="#AEA028"/>
</linearGradient>
</defs>
</svg>
