<svg width="428" height="490" viewBox="0 0 428 490" fill="none" xmlns="http://www.w3.org/2000/svg">
<path d="M133.227 391.564L145.821 379.638L339.454 138C339.454 138 379.642 123.685 401.939 138C406.729 141.075 412.959 147.174 412.959 147.174C412.959 147.174 396.842 141.938 387.771 145.339C382.418 147.346 377.343 148.598 376.227 153.596C375.007 159.057 380.122 162.106 385.147 165.522C390.571 169.208 395.683 167.626 401.939 170.109C407.124 172.166 414.534 176.53 414.534 176.53C414.534 176.53 402.403 176.674 399.84 181.576C398.307 184.509 398.308 186.9 399.84 189.832C402.202 194.351 408.398 192.373 412.959 195.337C416.448 197.603 420.831 202.217 420.831 202.217C420.831 202.217 414.886 200.059 410.86 199.465C406.011 198.749 402.925 198.088 398.266 199.465C393.294 200.934 388.813 202.307 387.771 206.804C386.77 211.122 397.7 214.459 401.9 216.895C405.522 218.996 412.92 218.271 412.92 218.271C412.92 218.271 407.672 223.056 406.623 223.776C402.942 226.299 397.613 224.944 396.128 228.821C393.973 234.447 405.905 232.613 411.345 236.16C418.903 241.089 427.613 251.756 427.613 251.756C427.613 251.756 410.773 245.821 399.276 247.036L398.227 247.169C391.512 248.174 383.61 246.896 381.959 252.673C380.272 258.577 413.334 258.91 416.068 264.506C417.947 268.352 418.167 275.056 418.167 275.056C418.167 275.056 405.914 266.494 398.751 269.552C388.623 273.875 412.101 280.512 416.068 289.734C419.128 296.848 419.217 308.999 419.217 308.999C419.217 308.999 411.716 293.246 401.375 290.652C392.953 288.538 384.262 287.988 379.335 294.321C375.418 299.357 375.749 304.695 379.335 309.917C381.468 313.021 386.732 315.171 390.208 316.309C392.208 316.817 393.504 317.256 393.504 317.256C393.504 317.256 392.129 316.937 390.208 316.309C385.076 315.003 375.309 313.238 370.939 317.256C363.108 324.456 382.439 330.302 383.534 340.19C385.633 359.161 374.088 367.253 374.088 367.253C374.088 367.253 373.315 355.648 369.365 349.364C365.873 343.809 363.783 339.052 356.771 337.438C349.938 335.865 343.643 337.051 339.454 342.025C333.88 348.644 346.276 362.208 346.276 362.208C346.276 362.208 340.689 361.511 337.355 360.373C333.59 359.088 328.434 352.253 328.434 355.786C328.434 358.538 332.271 370.15 328.434 378.262C324.725 386.105 311.118 393.858 311.118 393.858C311.118 393.858 310.683 356.625 301.147 364.96C298.524 367.253 302.131 377.336 298.524 384.225C295.553 389.898 286.979 396.61 286.979 396.61C286.979 396.61 290.817 384.219 283.831 379.638C281.732 378.262 279.363 393.692 271.761 399.362C264.463 404.806 248.672 406.701 248.672 406.701C248.672 406.701 262.84 375.51 241.326 379.638C231.268 381.568 223.484 396.61 223.484 396.61C223.484 396.61 220.86 390.647 219.286 392.482C211.843 401.156 223.484 420.003 223.484 420.003C223.484 420.003 204.381 416.82 195.672 409.912C187.785 403.656 185.177 393.858 182.029 389.271C179.981 386.288 176.256 396.61 176.256 396.61C176.256 396.61 173.729 387.6 168.385 386.06C162.635 384.403 160.097 390.301 154.217 391.564C146.256 393.274 133.227 391.564 133.227 391.564Z" fill="#FD0C0C"/>
<path d="M321.752 56.2076C321.752 56.2076 302.144 62.0637 304.165 65.2008L328.52 67.7494C328.52 67.7494 316.354 70.0848 314.806 71.9793C313.22 73.9188 310.507 76.3868 311.234 78.7991C312.181 81.9437 321.241 83.6249 324.414 83.9995C327.713 84.3889 336.615 77.1546 336.615 77.1546C336.615 77.1546 328.953 84.3912 328.466 87.1306C327.354 93.3871 334.414 98.8878 341.644 93.9019C343.169 92.8497 352.374 68.2048 352.374 68.2048C352.374 68.2048 355.899 78.1466 355.89 81.2895C355.845 97.5276 352.031 104.901 353.79 106.438C356.132 108.485 354.768 108.007 357.846 107.998C360.923 107.989 362.388 105.839 365.465 105.881C371.731 105.966 378.634 115.271 378.634 115.271C378.634 115.271 369.14 108.739 363.926 111.647C361.327 113.096 359.446 114.445 358.834 117.424C358.588 118.626 358.36 119.44 358.826 120.566C359.661 122.589 362.374 122.128 363.895 122.647C365.416 123.167 374.052 120.523 374.052 120.523C374.052 120.523 367.561 122.801 365.408 126.309C364.598 127.629 363.616 128.447 363.875 129.98C364.322 132.628 370.977 131.008 370.977 131.008L357.756 139.95L300.487 83.6698C273.617 136.399 138.713 271.026 89.704 302.282C89.704 302.282 47.7495 313.603 26.5432 296.652C21.9877 293.011 16.2577 286.084 16.2577 286.084C16.2577 286.084 32.0616 293.001 41.5475 290.268C47.1456 288.656 52.3916 287.806 53.9851 282.691C55.7264 277.101 50.8392 273.458 46.0774 269.44C40.9382 265.103 35.6234 266.293 29.5304 263.139C24.4809 260.525 17.3976 255.302 17.3976 255.302C17.3976 255.302 29.6731 256.244 32.719 251.359C34.5415 248.436 34.7637 245.941 33.4871 242.742C31.5205 237.813 25.0732 239.318 20.7386 235.814C17.4227 233.134 13.4223 227.924 13.4223 227.924C13.4223 227.924 19.2299 230.712 23.2444 231.695C28.0799 232.879 31.1369 233.847 35.9746 232.829C41.1374 231.744 45.7944 230.714 47.266 226.115C48.6793 221.698 37.9422 217.23 33.9233 214.309C30.4574 211.79 22.9124 211.88 22.9124 211.88C22.9124 211.88 28.6618 207.359 29.7896 206.702C33.7449 204.4 39.0058 206.295 40.8676 202.382C43.5692 196.704 31.3371 197.543 26.168 193.35C18.9872 187.525 11.1757 175.607 11.1757 175.607C11.1757 175.607 27.6452 183.319 39.3796 183.087L40.4529 183.042C47.3334 182.598 55.2021 184.644 57.4083 178.763C59.6628 172.753 26.274 169.427 24.0314 163.339C22.4902 159.156 22.8912 152.139 22.8912 152.139C22.8912 152.139 34.4801 162.179 42.0049 159.633C52.6447 156.034 29.5302 146.99 26.3785 137.008C23.9473 129.307 24.9883 116.616 24.9883 116.616C24.9883 116.616 31.1048 133.734 41.3158 137.374C49.6318 140.339 58.3658 141.696 63.9352 135.53C68.364 130.626 68.5256 125.025 65.3861 119.252C63.5194 115.819 58.3985 113.101 54.9903 111.601C53.0167 110.89 51.7473 110.315 51.7473 110.315C51.7473 110.315 53.1075 110.772 54.9903 111.601C60.057 113.426 69.7652 116.148 74.5557 112.348C83.1414 105.539 64.1452 97.6956 63.9592 87.2757C63.6025 67.2857 76.0247 59.8801 76.0247 59.8801C76.0247 59.8801 75.7262 72.0628 79.1343 78.9772C82.1471 85.0897 83.8172 90.2432 90.7549 92.5596C97.5159 94.817 103.988 94.1467 108.686 89.3323C114.936 82.9264 103.668 67.6523 103.668 67.6523C103.668 67.6523 109.25 68.8833 112.514 70.3711C116.201 72.0514 120.776 79.65 121.105 75.9625C121.361 73.0899 118.563 60.6239 123.196 52.5033C127.676 44.651 142.151 37.7856 142.151 37.7856C142.151 37.7856 139.127 76.6863 149.541 68.8459C152.406 66.6885 149.698 55.84 153.985 48.9743C157.515 43.3209 166.807 37.088 166.807 37.088C166.807 37.088 161.774 49.6755 168.41 55.086C170.404 56.7113 174.234 40.8198 182.445 35.5866C190.329 30.5622 206.467 30.0068 206.467 30.0068C206.467 30.0068 189.243 61.286 211.375 58.9157C221.721 57.8076 230.988 42.8089 230.988 42.8089C230.988 42.8089 233.086 49.2692 234.848 47.496C243.178 39.1128 233.165 18.3923 233.165 18.3923C233.165 18.3923 252.179 23.4361 260.339 31.4309C267.729 38.6714 269.454 49.133 272.209 54.2042C274.001 57.5016 278.727 47.0642 278.727 47.0642C278.727 47.0642 280.443 56.6956 285.702 58.7849C291.36 61.0329 294.474 55.105 300.535 54.3163C308.741 53.2486 321.752 56.2076 321.752 56.2076Z" fill="#FD0C0C"/>
<path d="M38.2261 324.5C38.8071 318.678 41.2884 315.735 44.7261 311C51.2487 302.016 80.226 289.5 80.226 289.5L166.226 362.5L132.226 392C132.226 392 134.039 386.596 134.226 383C134.538 376.993 134.924 372.308 130.726 368C127.613 364.805 124.632 362.797 120.226 363.5C115.038 364.328 113.487 368.758 111.226 373.5C108.849 378.485 109.226 387.5 109.226 387.5C109.226 387.5 104.019 379.395 103.226 373.5C102.383 367.232 103.226 371 105.726 357.5C106.728 352.09 99.2261 370 99.2261 370C99.2261 370 97.1789 362.386 97.7261 357.5C98.2552 352.775 101.726 346 101.726 346L93.8526 352.484C93.4666 352.814 93.2261 353 93.2261 353L93.8526 352.484C95.5923 350.996 100.286 346.573 99.2261 343C98.3219 339.953 96.3019 338.302 93.2261 337.5C89.6411 336.565 87.9029 340.955 84.2261 340.5C79.1542 339.873 74.7261 331.5 74.7261 331.5C74.7261 331.5 81.2393 336.408 84.2261 334C87.1145 331.672 85.9345 327.793 84.2261 324.5C82.4802 321.135 79.7709 320.345 76.2261 319C67.7685 315.792 59.8183 317.814 53.7261 324.5C47.9741 330.813 49.7261 346 49.7261 346C49.7261 346 37.2806 333.975 38.2261 324.5Z" fill="#FD0C0C"/>
<circle cx="221.227" cy="219" r="150" fill="#FF9900"/>
<path d="M220.226 361C205.726 363 182.726 361 182.726 361C182.726 361 174.933 363.365 171.726 360.5C166.654 355.969 182.726 347 182.726 347C182.726 351.5 240.226 340 237.726 347C234.782 355.242 228.896 359.804 220.226 361Z" fill="#FF7C00"/>
<path d="M326.726 325C326.726 325 215.726 316.5 198.726 325C198.726 325 145.726 344.5 132.726 340C119.011 335.252 129.852 315.862 120.226 305C110.901 294.477 96.8647 299.593 88.226 288.5C83.1219 281.946 79.726 269 79.726 269C79.726 269 80.226 236.934 113.226 243.467C146.226 250 237.726 252 237.726 252C248.504 258.032 297.791 232.744 326.726 252C335.695 257.969 349.599 260.617 346.726 271C343.922 281.134 328.726 278 320.726 278C262.733 278 194.226 264.5 172.226 278C160.684 285.083 152.124 290.391 148.726 303.5C145.226 317 337.726 313.5 337.726 313.5L332.726 319.5L326.726 325Z" fill="#FF7C00"/>
<path d="M277.726 232C253.189 233.798 226.726 227.5 213.226 232C199.726 236.5 159.641 231.325 147.726 223.544C80.726 200.5 328.119 202.484 337.726 223C337.726 223 301.934 230.226 277.726 232Z" fill="#FF7C00"/>
<path d="M303.726 177C281.307 186.651 275.009 165.97 241.226 177C241.226 177 180.04 191.367 144.226 179C121.179 171.042 74.3243 163.573 91.226 146C103.679 133.053 119.262 145.95 137.226 146C215.535 146.219 337.726 149 337.726 149C343.165 165.318 319.525 170.198 303.726 177Z" fill="#FF7C00"/>
<path d="M276.226 124.5C322.226 136 178.726 131.5 148.726 121C118.726 110.5 122.858 103.309 129.726 100.5C136.594 97.6905 144.226 99.3999 147.726 98C150.226 97 152.242 87.4145 157.726 83C162.98 78.7711 173.726 76.5 173.726 76.5L198.726 70.5C198.726 70.5 207.478 74.3752 213.226 76.5C228.729 82.2307 240.57 77.6891 254.226 87C265.226 94.5 167.226 100.5 157.726 103.5C113.118 117.586 273.316 123.772 276.226 124.5Z" fill="#FF7C00"/>
<path d="M129.726 199C202.726 182.972 73.726 194.5 73.726 194.5C73.726 194.5 69.726 208.5 71.726 214C72.7112 216.709 78.226 217.5 78.226 217.5C78.226 217.5 85.3008 221.879 90.226 221.5C95.9021 221.063 104.27 219.479 102.726 214C101.783 210.654 97.8854 211.225 95.726 208.5C87.1628 197.696 116.26 201.957 129.726 199Z" fill="#FF7C00"/>
<path d="M376.227 219C376.227 302.844 306.711 371 220.727 371C134.742 371 65.2266 302.844 65.2266 219C65.2266 135.156 134.742 67 220.727 67C306.711 67 376.227 135.156 376.227 219Z" stroke="#FD0C0C" stroke-width="10"/>
<path d="M27.3222 451.209C26.333 452.173 26.3121 453.756 27.2754 454.745L42.9735 470.864C43.9368 471.853 45.5196 471.874 46.5087 470.91C47.4979 469.947 47.5188 468.364 46.5555 467.375L32.6016 453.047L46.9296 439.093C47.9187 438.13 47.9397 436.547 46.9763 435.558C46.013 434.569 44.4303 434.548 43.4411 435.511L27.3222 451.209ZM408.811 459.791C409.8 458.828 409.821 457.245 408.857 456.256L393.159 440.137C392.196 439.148 390.613 439.127 389.624 440.091C388.635 441.054 388.614 442.637 389.577 443.626L403.531 457.954L389.203 471.908C388.214 472.871 388.193 474.454 389.156 475.443C390.12 476.432 391.703 476.453 392.692 475.49L408.811 459.791ZM29.0333 455.5L39.5333 455.639L39.5995 450.64L29.0995 450.501L29.0333 455.5ZM60.5333 455.917L81.5333 456.195L81.5995 451.195L60.5995 450.917L60.5333 455.917ZM102.533 456.472L123.533 456.75L123.599 451.751L102.599 451.473L102.533 456.472ZM144.533 457.028L165.533 457.306L165.599 452.306L144.599 452.028L144.533 457.028ZM186.533 457.584L207.533 457.861L207.599 452.862L186.599 452.584L186.533 457.584ZM228.533 458.139L249.533 458.417L249.599 453.417L228.599 453.14L228.533 458.139ZM270.533 458.695L291.533 458.972L291.599 453.973L270.599 453.695L270.533 458.695ZM312.533 459.25L333.533 459.528L333.599 454.528L312.599 454.251L312.533 459.25ZM354.533 459.806L375.533 460.084L375.599 455.084L354.599 454.806L354.533 459.806ZM396.533 460.361L407.033 460.5L407.099 455.501L396.599 455.362L396.533 460.361Z" fill="white"/>
<path d="M120.239 474.364V486H117.432V476.989H117.364L114.761 478.58V476.148L117.631 474.364H120.239ZM125.075 484.409L125.024 485.04C124.979 485.562 124.886 486.072 124.746 486.568C124.609 487.068 124.464 487.517 124.308 487.915C124.153 488.313 124.03 488.621 123.939 488.841H122.189C122.25 488.621 122.331 488.313 122.433 487.915C122.539 487.517 122.638 487.068 122.729 486.568C122.82 486.068 122.871 485.561 122.882 485.045L122.893 484.409H125.075ZM127.044 484.068V481.875L131.811 474.364H133.76V477.341H132.629L129.839 481.761V481.852H136.743V484.068H127.044ZM132.663 486V483.398L132.72 482.438V474.364H135.351V486H132.663ZM141.678 486V477.273H144.32V478.875H144.416C144.598 478.345 144.905 477.926 145.337 477.619C145.768 477.312 146.284 477.159 146.882 477.159C147.488 477.159 148.007 477.314 148.439 477.625C148.871 477.936 149.145 478.352 149.263 478.875H149.354C149.517 478.356 149.835 477.941 150.308 477.631C150.782 477.316 151.34 477.159 151.984 477.159C152.81 477.159 153.481 477.424 153.996 477.955C154.511 478.481 154.768 479.205 154.768 480.125V486H151.99V480.761C151.99 480.326 151.878 479.994 151.655 479.767C151.431 479.536 151.142 479.42 150.786 479.42C150.403 479.42 150.102 479.545 149.882 479.795C149.666 480.042 149.558 480.373 149.558 480.79V486H146.888V480.733C146.888 480.328 146.778 480.008 146.558 479.773C146.339 479.538 146.049 479.42 145.689 479.42C145.446 479.42 145.232 479.479 145.047 479.597C144.861 479.71 144.715 479.873 144.609 480.085C144.507 480.297 144.456 480.547 144.456 480.835V486H141.678ZM156.49 486V477.273H159.268V486H156.49ZM157.882 476.256C157.492 476.256 157.157 476.127 156.876 475.869C156.596 475.608 156.456 475.294 156.456 474.926C156.456 474.562 156.596 474.252 156.876 473.994C157.157 473.733 157.492 473.602 157.882 473.602C158.276 473.602 158.611 473.733 158.888 473.994C159.168 474.252 159.308 474.562 159.308 474.926C159.308 475.294 159.168 475.608 158.888 475.869C158.611 476.127 158.276 476.256 157.882 476.256ZM163.815 474.364V486H161.037V474.364H163.815ZM168.362 481.023V486H165.584V474.364H168.271V478.875H168.368C168.565 478.337 168.887 477.917 169.334 477.614C169.785 477.311 170.336 477.159 170.987 477.159C171.601 477.159 172.135 477.295 172.589 477.568C173.044 477.837 173.396 478.218 173.646 478.71C173.9 479.203 174.025 479.778 174.021 480.438V486H171.243V480.983C171.247 480.498 171.125 480.119 170.879 479.847C170.633 479.574 170.286 479.438 169.839 479.438C169.548 479.438 169.29 479.502 169.067 479.631C168.847 479.756 168.675 479.936 168.55 480.17C168.429 480.405 168.366 480.689 168.362 481.023ZM179.83 486.165C178.913 486.165 178.125 485.977 177.466 485.602C176.811 485.223 176.305 484.697 175.949 484.023C175.597 483.345 175.42 482.559 175.42 481.665C175.42 480.767 175.597 479.981 175.949 479.307C176.305 478.629 176.811 478.102 177.466 477.727C178.125 477.348 178.913 477.159 179.83 477.159C180.746 477.159 181.532 477.348 182.188 477.727C182.847 478.102 183.352 478.629 183.705 479.307C184.061 479.981 184.239 480.767 184.239 481.665C184.239 482.559 184.061 483.345 183.705 484.023C183.352 484.697 182.847 485.223 182.188 485.602C181.532 485.977 180.746 486.165 179.83 486.165ZM179.847 484.068C180.18 484.068 180.462 483.966 180.693 483.761C180.924 483.557 181.1 483.273 181.222 482.909C181.347 482.545 181.409 482.125 181.409 481.648C181.409 481.163 181.347 480.739 181.222 480.375C181.1 480.011 180.924 479.727 180.693 479.523C180.462 479.318 180.18 479.216 179.847 479.216C179.502 479.216 179.21 479.318 178.972 479.523C178.737 479.727 178.557 480.011 178.432 480.375C178.311 480.739 178.25 481.163 178.25 481.648C178.25 482.125 178.311 482.545 178.432 482.909C178.557 483.273 178.737 483.557 178.972 483.761C179.21 483.966 179.502 484.068 179.847 484.068ZM178.244 476.193L176.795 476.182C176.795 475.413 176.979 474.831 177.347 474.438C177.714 474.044 178.161 473.845 178.688 473.841C178.968 473.841 179.206 473.886 179.403 473.977C179.604 474.064 179.78 474.169 179.932 474.29C180.087 474.407 180.231 474.511 180.364 474.602C180.5 474.689 180.644 474.733 180.795 474.733C181.011 474.729 181.17 474.65 181.273 474.494C181.379 474.335 181.434 474.121 181.438 473.852L182.864 473.869C182.852 474.631 182.665 475.212 182.301 475.614C181.938 476.011 181.494 476.212 180.972 476.216C180.684 476.22 180.439 476.176 180.239 476.085C180.038 475.994 179.864 475.89 179.716 475.773C179.572 475.655 179.434 475.553 179.301 475.466C179.169 475.375 179.023 475.33 178.864 475.33C178.678 475.33 178.528 475.405 178.415 475.557C178.301 475.705 178.244 475.917 178.244 476.193ZM189.741 486.165C188.829 486.165 188.041 485.985 187.378 485.625C186.719 485.261 186.211 484.744 185.855 484.074C185.503 483.4 185.327 482.598 185.327 481.67C185.327 480.769 185.505 479.981 185.861 479.307C186.217 478.629 186.719 478.102 187.366 477.727C188.014 477.348 188.777 477.159 189.656 477.159C190.277 477.159 190.846 477.256 191.361 477.449C191.876 477.642 192.321 477.928 192.696 478.307C193.071 478.686 193.363 479.153 193.571 479.71C193.779 480.263 193.884 480.898 193.884 481.614V482.307H186.298V480.693H191.298C191.295 480.398 191.224 480.134 191.088 479.903C190.952 479.672 190.764 479.492 190.526 479.364C190.291 479.231 190.02 479.165 189.713 479.165C189.402 479.165 189.124 479.235 188.878 479.375C188.632 479.511 188.437 479.699 188.293 479.938C188.149 480.172 188.073 480.439 188.065 480.739V482.381C188.065 482.737 188.135 483.049 188.276 483.318C188.416 483.583 188.615 483.79 188.872 483.938C189.13 484.085 189.437 484.159 189.793 484.159C190.039 484.159 190.262 484.125 190.463 484.057C190.664 483.989 190.836 483.888 190.98 483.756C191.124 483.623 191.232 483.46 191.304 483.267L193.855 483.341C193.749 483.913 193.516 484.411 193.156 484.835C192.8 485.256 192.332 485.583 191.753 485.818C191.173 486.049 190.503 486.165 189.741 486.165ZM202.922 479.938L200.371 480.006C200.344 479.824 200.272 479.663 200.155 479.523C200.037 479.379 199.884 479.267 199.695 479.188C199.509 479.104 199.293 479.062 199.047 479.062C198.725 479.062 198.45 479.127 198.223 479.256C198 479.384 197.89 479.559 197.893 479.778C197.89 479.949 197.958 480.097 198.098 480.222C198.242 480.347 198.498 480.447 198.865 480.523L200.547 480.841C201.418 481.008 202.066 481.284 202.49 481.67C202.918 482.057 203.134 482.568 203.138 483.205C203.134 483.803 202.956 484.324 202.604 484.767C202.255 485.21 201.778 485.555 201.172 485.801C200.566 486.044 199.873 486.165 199.092 486.165C197.846 486.165 196.863 485.909 196.143 485.398C195.428 484.883 195.018 484.193 194.916 483.33L197.661 483.261C197.721 483.58 197.878 483.822 198.132 483.989C198.386 484.155 198.71 484.239 199.104 484.239C199.46 484.239 199.75 484.172 199.973 484.04C200.196 483.907 200.31 483.731 200.314 483.511C200.31 483.314 200.223 483.157 200.053 483.04C199.882 482.919 199.615 482.824 199.251 482.756L197.729 482.466C196.854 482.307 196.202 482.013 195.774 481.585C195.346 481.153 195.134 480.604 195.138 479.938C195.134 479.354 195.289 478.856 195.604 478.443C195.918 478.027 196.365 477.708 196.945 477.489C197.524 477.269 198.208 477.159 198.996 477.159C200.178 477.159 201.109 477.407 201.791 477.903C202.473 478.396 202.85 479.074 202.922 479.938ZM213.642 489.273V484.585H213.585C213.468 484.854 213.301 485.106 213.085 485.341C212.869 485.576 212.598 485.765 212.273 485.909C211.951 486.053 211.57 486.125 211.131 486.125C210.487 486.125 209.902 485.958 209.375 485.625C208.848 485.292 208.428 484.792 208.114 484.125C207.799 483.458 207.642 482.631 207.642 481.642C207.642 480.616 207.805 479.771 208.131 479.108C208.456 478.445 208.883 477.955 209.409 477.636C209.939 477.318 210.509 477.159 211.119 477.159C211.578 477.159 211.97 477.239 212.295 477.398C212.621 477.553 212.89 477.754 213.102 478C213.314 478.246 213.475 478.502 213.585 478.767H213.67V477.273H216.42V489.273H213.642ZM212.097 483.96C212.434 483.96 212.722 483.866 212.96 483.676C213.199 483.483 213.383 483.212 213.511 482.864C213.64 482.515 213.705 482.106 213.705 481.636C213.705 481.159 213.64 480.748 213.511 480.403C213.386 480.059 213.203 479.794 212.96 479.608C212.722 479.422 212.434 479.33 212.097 479.33C211.752 479.33 211.46 479.424 211.222 479.614C210.983 479.803 210.801 480.07 210.676 480.415C210.555 480.759 210.494 481.167 210.494 481.636C210.494 482.106 210.557 482.515 210.682 482.864C210.807 483.212 210.987 483.483 211.222 483.676C211.46 483.866 211.752 483.96 212.097 483.96ZM223.808 482.233V477.273H226.581V486H223.933V484.375H223.842C223.649 484.909 223.32 485.333 222.854 485.648C222.392 485.958 221.833 486.114 221.178 486.114C220.583 486.114 220.06 485.977 219.609 485.705C219.159 485.432 218.808 485.051 218.558 484.562C218.308 484.07 218.181 483.494 218.178 482.835V477.273H220.956V482.29C220.96 482.763 221.085 483.136 221.331 483.409C221.577 483.682 221.912 483.818 222.337 483.818C222.613 483.818 222.861 483.758 223.081 483.636C223.304 483.511 223.481 483.331 223.609 483.097C223.742 482.858 223.808 482.57 223.808 482.233ZM228.349 486V477.273H231.128V486H228.349ZM229.741 476.256C229.351 476.256 229.016 476.127 228.736 475.869C228.455 475.608 228.315 475.294 228.315 474.926C228.315 474.562 228.455 474.252 228.736 473.994C229.016 473.733 229.351 473.602 229.741 473.602C230.135 473.602 230.471 473.733 230.747 473.994C231.027 474.252 231.168 474.562 231.168 474.926C231.168 475.294 231.027 475.608 230.747 475.869C230.471 476.127 230.135 476.256 229.741 476.256ZM235.675 474.364V486H232.896V474.364H235.675ZM241.517 486.165C240.6 486.165 239.813 485.977 239.153 485.602C238.498 485.223 237.992 484.697 237.636 484.023C237.284 483.345 237.108 482.559 237.108 481.665C237.108 480.767 237.284 479.981 237.636 479.307C237.992 478.629 238.498 478.102 239.153 477.727C239.813 477.348 240.6 477.159 241.517 477.159C242.434 477.159 243.22 477.348 243.875 477.727C244.534 478.102 245.04 478.629 245.392 479.307C245.748 479.981 245.926 480.767 245.926 481.665C245.926 482.559 245.748 483.345 245.392 484.023C245.04 484.697 244.534 485.223 243.875 485.602C243.22 485.977 242.434 486.165 241.517 486.165ZM241.534 484.068C241.867 484.068 242.15 483.966 242.381 483.761C242.612 483.557 242.788 483.273 242.909 482.909C243.034 482.545 243.097 482.125 243.097 481.648C243.097 481.163 243.034 480.739 242.909 480.375C242.788 480.011 242.612 479.727 242.381 479.523C242.15 479.318 241.867 479.216 241.534 479.216C241.189 479.216 240.898 479.318 240.659 479.523C240.424 479.727 240.244 480.011 240.119 480.375C239.998 480.739 239.938 481.163 239.938 481.648C239.938 482.125 239.998 482.545 240.119 482.909C240.244 483.273 240.424 483.557 240.659 483.761C240.898 483.966 241.189 484.068 241.534 484.068ZM240.557 476.165L241.705 473.602H244.165L242.449 476.165H240.557ZM247.349 486V477.273H249.991V478.875H250.088C250.27 478.345 250.577 477.926 251.009 477.619C251.44 477.312 251.955 477.159 252.554 477.159C253.16 477.159 253.679 477.314 254.111 477.625C254.543 477.936 254.817 478.352 254.935 478.875H255.026C255.188 478.356 255.507 477.941 255.98 477.631C256.454 477.316 257.012 477.159 257.656 477.159C258.482 477.159 259.152 477.424 259.668 477.955C260.183 478.481 260.44 479.205 260.44 480.125V486H257.662V480.761C257.662 480.326 257.55 479.994 257.327 479.767C257.103 479.536 256.813 479.42 256.457 479.42C256.075 479.42 255.774 479.545 255.554 479.795C255.338 480.042 255.23 480.373 255.23 480.79V486H252.56V480.733C252.56 480.328 252.45 480.008 252.23 479.773C252.01 479.538 251.721 479.42 251.361 479.42C251.118 479.42 250.904 479.479 250.719 479.597C250.533 479.71 250.387 479.873 250.281 480.085C250.179 480.297 250.128 480.547 250.128 480.835V486H247.349ZM266.241 486.165C265.329 486.165 264.541 485.985 263.878 485.625C263.219 485.261 262.711 484.744 262.355 484.074C262.003 483.4 261.827 482.598 261.827 481.67C261.827 480.769 262.005 479.981 262.361 479.307C262.717 478.629 263.219 478.102 263.866 477.727C264.514 477.348 265.277 477.159 266.156 477.159C266.777 477.159 267.346 477.256 267.861 477.449C268.376 477.642 268.821 477.928 269.196 478.307C269.571 478.686 269.863 479.153 270.071 479.71C270.279 480.263 270.384 480.898 270.384 481.614V482.307H262.798V480.693H267.798C267.795 480.398 267.724 480.134 267.588 479.903C267.452 479.672 267.264 479.492 267.026 479.364C266.791 479.231 266.52 479.165 266.213 479.165C265.902 479.165 265.624 479.235 265.378 479.375C265.132 479.511 264.937 479.699 264.793 479.938C264.649 480.172 264.573 480.439 264.565 480.739V482.381C264.565 482.737 264.635 483.049 264.776 483.318C264.916 483.583 265.115 483.79 265.372 483.938C265.63 484.085 265.937 484.159 266.293 484.159C266.539 484.159 266.762 484.125 266.963 484.057C267.164 483.989 267.336 483.888 267.48 483.756C267.624 483.623 267.732 483.46 267.804 483.267L270.355 483.341C270.249 483.913 270.016 484.411 269.656 484.835C269.3 485.256 268.832 485.583 268.253 485.818C267.673 486.049 267.003 486.165 266.241 486.165ZM276.729 477.273V479.318H271.223V477.273H276.729ZM272.376 475.182H275.155V483.256C275.155 483.426 275.181 483.564 275.234 483.67C275.291 483.773 275.373 483.847 275.479 483.892C275.585 483.934 275.712 483.955 275.859 483.955C275.965 483.955 276.077 483.945 276.195 483.926C276.316 483.903 276.407 483.884 276.467 483.869L276.888 485.875C276.755 485.913 276.568 485.96 276.325 486.017C276.087 486.074 275.801 486.11 275.467 486.125C274.816 486.155 274.257 486.08 273.791 485.898C273.329 485.712 272.975 485.424 272.729 485.034C272.486 484.644 272.369 484.153 272.376 483.562V475.182ZM278.146 486V477.273H280.845V478.864H280.936C281.095 478.288 281.355 477.86 281.714 477.58C282.074 477.295 282.493 477.153 282.97 477.153C283.099 477.153 283.232 477.163 283.368 477.182C283.504 477.197 283.631 477.222 283.749 477.256V479.67C283.616 479.625 283.442 479.589 283.226 479.562C283.014 479.536 282.824 479.523 282.658 479.523C282.328 479.523 282.031 479.597 281.766 479.744C281.504 479.888 281.298 480.091 281.146 480.352C280.999 480.61 280.925 480.913 280.925 481.261V486H278.146ZM288.501 486.165C287.585 486.165 286.797 485.977 286.138 485.602C285.482 485.223 284.977 484.697 284.621 484.023C284.268 483.345 284.092 482.559 284.092 481.665C284.092 480.767 284.268 479.981 284.621 479.307C284.977 478.629 285.482 478.102 286.138 477.727C286.797 477.348 287.585 477.159 288.501 477.159C289.418 477.159 290.204 477.348 290.859 477.727C291.518 478.102 292.024 478.629 292.376 479.307C292.732 479.981 292.911 480.767 292.911 481.665C292.911 482.559 292.732 483.345 292.376 484.023C292.024 484.697 291.518 485.223 290.859 485.602C290.204 485.977 289.418 486.165 288.501 486.165ZM288.518 484.068C288.852 484.068 289.134 483.966 289.365 483.761C289.596 483.557 289.772 483.273 289.893 482.909C290.018 482.545 290.081 482.125 290.081 481.648C290.081 481.163 290.018 480.739 289.893 480.375C289.772 480.011 289.596 479.727 289.365 479.523C289.134 479.318 288.852 479.216 288.518 479.216C288.174 479.216 287.882 479.318 287.643 479.523C287.409 479.727 287.229 480.011 287.104 480.375C286.982 480.739 286.922 481.163 286.922 481.648C286.922 482.125 286.982 482.545 287.104 482.909C287.229 483.273 287.409 483.557 287.643 483.761C287.882 483.966 288.174 484.068 288.518 484.068ZM301.953 479.938L299.402 480.006C299.375 479.824 299.304 479.663 299.186 479.523C299.069 479.379 298.915 479.267 298.726 479.188C298.54 479.104 298.324 479.062 298.078 479.062C297.756 479.062 297.482 479.127 297.254 479.256C297.031 479.384 296.921 479.559 296.925 479.778C296.921 479.949 296.989 480.097 297.129 480.222C297.273 480.347 297.529 480.447 297.896 480.523L299.578 480.841C300.449 481.008 301.097 481.284 301.521 481.67C301.949 482.057 302.165 482.568 302.169 483.205C302.165 483.803 301.987 484.324 301.635 484.767C301.286 485.21 300.809 485.555 300.203 485.801C299.597 486.044 298.904 486.165 298.124 486.165C296.877 486.165 295.894 485.909 295.175 485.398C294.459 484.883 294.05 484.193 293.947 483.33L296.692 483.261C296.752 483.58 296.91 483.822 297.163 483.989C297.417 484.155 297.741 484.239 298.135 484.239C298.491 484.239 298.781 484.172 299.004 484.04C299.228 483.907 299.341 483.731 299.345 483.511C299.341 483.314 299.254 483.157 299.084 483.04C298.913 482.919 298.646 482.824 298.283 482.756L296.76 482.466C295.885 482.307 295.233 482.013 294.805 481.585C294.377 481.153 294.165 480.604 294.169 479.938C294.165 479.354 294.321 478.856 294.635 478.443C294.949 478.027 295.396 477.708 295.976 477.489C296.555 477.269 297.239 477.159 298.027 477.159C299.209 477.159 300.141 477.407 300.822 477.903C301.504 478.396 301.881 479.074 301.953 479.938Z" fill="white"/>
</svg>
