<svg width="260" height="135" viewBox="0 0 260 135" fill="none" xmlns="http://www.w3.org/2000/svg">
<path d="M1.24829 102.198C0.263488 103.155 0.249419 104.737 1.21686 105.733L16.9823 121.955C17.9497 122.951 19.5323 122.982 20.5171 122.025C21.5019 121.068 21.516 119.485 20.5486 118.489L6.53485 104.07L20.7999 90.2063C21.7847 89.2493 21.7988 87.6664 20.8314 86.6709C19.8639 85.6755 18.2813 85.6443 17.2965 86.6014L1.24829 102.198ZM258.752 110.802C259.736 109.845 259.751 108.263 258.783 107.267L243.018 91.0447C242.05 90.0492 240.468 90.0181 239.483 90.9751C238.498 91.9322 238.484 93.515 239.451 94.5105L253.465 108.93L239.2 122.794C238.215 123.751 238.201 125.334 239.169 126.329C240.136 127.325 241.719 127.356 242.703 126.399L258.752 110.802ZM2.97778 106.5L13.5611 106.708L13.6056 101.708L3.02222 101.5L2.97778 106.5ZM34.7278 107.125L55.8944 107.542L55.9389 102.542L34.7722 102.125L34.7278 107.125ZM77.0611 107.958L98.2278 108.375L98.2722 103.375L77.1056 102.958L77.0611 107.958ZM119.394 108.792L140.561 109.208L140.606 104.208L119.439 103.792L119.394 108.792ZM161.728 109.625L182.894 110.042L182.939 105.042L161.772 104.625L161.728 109.625ZM204.061 110.458L225.228 110.875L225.272 105.875L204.106 105.458L204.061 110.458ZM246.394 111.292L256.978 111.5L257.022 106.5L246.439 106.292L246.394 111.292Z" fill="white"/>
<path d="M93.2386 120.364V132H90.4318V122.989H90.3636L87.7614 124.58V122.148L90.6307 120.364H93.2386ZM95.8111 132V129.977L100.055 126.261C100.374 125.973 100.644 125.71 100.868 125.472C101.091 125.229 101.262 124.987 101.379 124.744C101.497 124.498 101.555 124.231 101.555 123.943C101.555 123.621 101.485 123.347 101.345 123.119C101.205 122.888 101.012 122.71 100.766 122.585C100.519 122.46 100.237 122.398 99.919 122.398C99.5971 122.398 99.3149 122.464 99.0724 122.597C98.83 122.725 98.6406 122.913 98.5043 123.159C98.3717 123.405 98.3054 123.705 98.3054 124.057H95.6406C95.6406 123.265 95.8187 122.581 96.1747 122.006C96.5308 121.43 97.0308 120.987 97.6747 120.676C98.3224 120.362 99.0743 120.205 99.9304 120.205C100.813 120.205 101.58 120.352 102.232 120.648C102.883 120.943 103.387 121.356 103.743 121.886C104.103 122.413 104.283 123.025 104.283 123.722C104.283 124.165 104.194 124.604 104.016 125.04C103.838 125.475 103.518 125.956 103.055 126.483C102.597 127.009 101.946 127.64 101.101 128.375L99.7088 129.659V129.733H104.425V132H95.8111ZM107.599 132.165C107.19 132.165 106.84 132.021 106.548 131.733C106.26 131.445 106.118 131.097 106.122 130.688C106.118 130.286 106.26 129.943 106.548 129.659C106.84 129.371 107.19 129.227 107.599 129.227C107.986 129.227 108.327 129.371 108.622 129.659C108.921 129.943 109.073 130.286 109.077 130.688C109.073 130.96 109.001 131.208 108.861 131.432C108.724 131.655 108.545 131.833 108.321 131.966C108.101 132.098 107.861 132.165 107.599 132.165ZM110.884 132L115.577 122.705V122.631H110.088V120.364H118.486V122.648L113.776 132H110.884ZM124.328 132.159C123.48 132.159 122.726 132.006 122.067 131.699C121.408 131.392 120.887 130.97 120.504 130.432C120.125 129.894 119.929 129.277 119.913 128.58H122.641C122.663 129.008 122.838 129.352 123.163 129.614C123.489 129.871 123.877 130 124.328 130C124.68 130 124.993 129.922 125.266 129.767C125.538 129.612 125.752 129.394 125.908 129.114C126.063 128.83 126.139 128.504 126.135 128.136C126.139 127.761 126.061 127.434 125.902 127.153C125.747 126.873 125.531 126.655 125.254 126.5C124.982 126.341 124.667 126.261 124.311 126.261C123.974 126.258 123.654 126.331 123.351 126.483C123.052 126.634 122.824 126.841 122.669 127.102L120.186 126.636L120.692 120.364H128.158V122.631H123.004L122.737 125.375H122.805C122.999 125.053 123.309 124.788 123.737 124.58C124.169 124.367 124.66 124.261 125.209 124.261C125.906 124.261 126.527 124.424 127.072 124.75C127.622 125.072 128.054 125.519 128.368 126.091C128.686 126.663 128.845 127.318 128.845 128.057C128.845 128.856 128.656 129.564 128.277 130.182C127.902 130.799 127.375 131.284 126.697 131.636C126.023 131.985 125.233 132.159 124.328 132.159ZM135.054 132.159C134.418 132.159 133.808 132.057 133.224 131.852C132.641 131.644 132.122 131.314 131.668 130.864C131.213 130.409 130.855 129.814 130.594 129.08C130.332 128.341 130.204 127.441 130.207 126.381C130.211 125.422 130.329 124.562 130.56 123.801C130.791 123.036 131.12 122.386 131.548 121.852C131.98 121.318 132.495 120.911 133.094 120.631C133.696 120.347 134.368 120.205 135.111 120.205C135.925 120.205 136.643 120.364 137.264 120.682C137.889 120.996 138.389 121.42 138.764 121.955C139.139 122.485 139.361 123.076 139.429 123.727H136.662C136.579 123.36 136.395 123.081 136.111 122.892C135.83 122.699 135.497 122.602 135.111 122.602C134.399 122.602 133.866 122.911 133.514 123.528C133.166 124.146 132.988 124.972 132.98 126.006H133.054C133.213 125.657 133.442 125.358 133.741 125.108C134.041 124.858 134.384 124.667 134.77 124.534C135.16 124.398 135.573 124.33 136.009 124.33C136.705 124.33 137.321 124.491 137.855 124.812C138.389 125.134 138.808 125.576 139.111 126.136C139.414 126.693 139.563 127.331 139.56 128.051C139.563 128.862 139.374 129.578 138.991 130.199C138.609 130.816 138.079 131.297 137.401 131.642C136.726 131.987 135.944 132.159 135.054 132.159ZM135.037 130C135.382 130 135.69 129.919 135.963 129.756C136.236 129.593 136.45 129.371 136.605 129.091C136.76 128.811 136.836 128.494 136.832 128.142C136.836 127.786 136.76 127.47 136.605 127.193C136.454 126.917 136.241 126.697 135.969 126.534C135.7 126.371 135.391 126.29 135.043 126.29C134.789 126.29 134.552 126.337 134.332 126.432C134.113 126.527 133.921 126.659 133.759 126.83C133.599 126.996 133.474 127.193 133.384 127.42C133.293 127.644 133.245 127.886 133.241 128.148C133.245 128.492 133.325 128.805 133.48 129.085C133.635 129.366 133.848 129.589 134.116 129.756C134.385 129.919 134.692 130 135.037 130ZM143.56 130.409L143.509 131.04C143.463 131.562 143.37 132.072 143.23 132.568C143.094 133.068 142.948 133.517 142.793 133.915C142.637 134.313 142.514 134.621 142.423 134.841H140.673C140.734 134.621 140.815 134.313 140.918 133.915C141.024 133.517 141.122 133.068 141.213 132.568C141.304 132.068 141.355 131.561 141.366 131.045L141.378 130.409H143.56ZM145.67 132V129.977L149.915 126.261C150.233 125.973 150.504 125.71 150.727 125.472C150.951 125.229 151.121 124.987 151.239 124.744C151.356 124.498 151.415 124.231 151.415 123.943C151.415 123.621 151.345 123.347 151.205 123.119C151.064 122.888 150.871 122.71 150.625 122.585C150.379 122.46 150.097 122.398 149.778 122.398C149.456 122.398 149.174 122.464 148.932 122.597C148.689 122.725 148.5 122.913 148.364 123.159C148.231 123.405 148.165 123.705 148.165 124.057H145.5C145.5 123.265 145.678 122.581 146.034 122.006C146.39 121.43 146.89 120.987 147.534 120.676C148.182 120.362 148.934 120.205 149.79 120.205C150.672 120.205 151.439 120.352 152.091 120.648C152.742 120.943 153.246 121.356 153.602 121.886C153.962 122.413 154.142 123.025 154.142 123.722C154.142 124.165 154.053 124.604 153.875 125.04C153.697 125.475 153.377 125.956 152.915 126.483C152.456 127.009 151.805 127.64 150.96 128.375L149.568 129.659V129.733H154.284V132H145.67ZM165.277 129.71L165.288 126.398H165.675L168.129 123.273H171.277L167.629 127.75H166.896L165.277 129.71ZM162.771 132V120.364H165.55V132H162.771ZM168.192 132L165.908 128.375L167.737 126.403L171.402 132H168.192ZM172.271 132V123.273H174.913V124.875H175.01C175.192 124.345 175.499 123.926 175.93 123.619C176.362 123.312 176.877 123.159 177.476 123.159C178.082 123.159 178.601 123.314 179.033 123.625C179.464 123.936 179.739 124.352 179.857 124.875H179.947C180.11 124.356 180.429 123.941 180.902 123.631C181.375 123.316 181.934 123.159 182.578 123.159C183.404 123.159 184.074 123.424 184.589 123.955C185.105 124.481 185.362 125.205 185.362 126.125V132H182.584V126.761C182.584 126.326 182.472 125.994 182.249 125.767C182.025 125.536 181.735 125.42 181.379 125.42C180.997 125.42 180.696 125.545 180.476 125.795C180.26 126.042 180.152 126.373 180.152 126.79V132H177.482V126.733C177.482 126.328 177.372 126.008 177.152 125.773C176.932 125.538 176.643 125.42 176.283 125.42C176.04 125.42 175.826 125.479 175.641 125.597C175.455 125.71 175.309 125.873 175.203 126.085C175.101 126.297 175.05 126.547 175.05 126.835V132H172.271Z" fill="white"/>
<circle cx="130" cy="45" r="45" fill="#0399FC"/>
<path d="M116.691 74.3379C116.691 74.3379 117.996 82.2807 117.213 83.8719C116.691 84.9312 110.415 79.1049 109.91 78.0456C109.004 76.1472 110.769 73.5962 108.866 72.7489C107.933 72.3335 107.224 73.076 106.258 72.7489C103.525 71.8239 105.736 66.393 105.215 65.3336C104.724 64.3373 103.56 64.825 102.606 64.2743C99.1137 62.2576 97.3898 55.27 97.3898 55.27C97.3898 55.27 97.9417 50.8513 96.8682 48.3844C95.7038 45.7087 92.9023 45.723 91.6516 43.0878C91.0078 41.7312 91.059 40.8148 90.6083 39.3801C89.7459 36.6354 88 32.4945 88 32.4945L90.0866 26.6682L93.2166 21.3716L96.3465 17.1343L99.4765 13.9563L103.65 10.2486C103.65 10.2486 106.491 7.0072 108.866 7.07065C110.154 7.10507 110.749 7.80266 111.996 8.12998C115.552 9.063 118.937 5.88066 121.386 8.65964C121.876 9.21544 122.358 9.50633 122.429 10.2486C122.556 11.5669 120.448 11.2058 119.821 12.3673C119.038 13.8185 120.545 15.1222 119.821 16.6046C118.967 18.3527 117.169 18.0603 115.648 19.2529C113.023 21.3109 112.693 23.7785 109.91 25.6089C107.368 27.2804 105.279 26.8104 102.606 28.2572C99.4058 29.9899 96.0802 30.4862 95.3032 34.0835C95.0414 35.2958 95.037 36.0502 95.3032 37.2615C96.2168 41.4185 101.317 40.0305 104.693 42.5581C107.594 44.7298 111.475 48.9141 111.475 48.9141L116.691 51.0327C116.691 51.0327 120.566 53.3021 121.386 55.7997C121.966 57.5658 121.886 58.7756 121.386 60.5667C120.675 63.1152 117.462 63.2265 117.213 65.8633C117.028 67.8167 118.778 70.6303 118.778 70.6303L116.691 74.3379Z" fill="#1A4708"/>
<path d="M151.121 71.1599C152.023 73.6963 149.381 76.6313 151.642 78.0456C154.244 79.6727 155.912 75.6329 157.902 73.2786C159.45 71.4482 159.268 69.5978 161.032 67.982C162.86 66.3078 165.188 67.2484 166.77 65.3336C169.127 62.4813 168.234 59.2133 166.77 55.7997C166.296 54.6939 165.35 54.3485 165.205 53.1514C164.924 50.8286 168.859 51.194 169.379 48.9141C169.802 47.0562 168.749 46.0073 168.335 44.1471C167.737 41.4551 165.845 39.8562 166.77 37.2615C167.659 34.7709 172.277 35.6567 171.987 33.0242C171.915 32.3741 171.465 31.4352 171.465 31.4352C171.465 31.4352 170.405 27.7944 169.379 25.6089C168.356 23.4313 167.603 22.2944 166.249 20.3122C164.435 17.6572 163.299 16.2238 161.032 13.9563C158.448 11.3717 157.136 9.39208 153.729 8.12998C148.505 6.19516 143.926 6.64689 139.644 10.2486C136.9 12.557 134.786 14.5791 134.949 18.1936C135.017 19.6979 135.017 20.7667 135.993 21.9012C138.157 24.4189 140.739 17.5404 143.817 18.7233C145.305 19.2951 145.506 20.6872 146.947 21.3716C149.346 22.5106 153.729 21.3716 153.729 21.3716C153.729 21.3716 165.205 28.2572 163.119 29.3165C161.032 30.3759 155.294 28.7869 155.294 28.7869L152.686 27.7275H142.774C142.774 27.7275 133.421 33.3286 132.341 39.3801C131.978 41.4155 131.894 42.6586 132.341 44.6768C132.901 47.2055 133.056 49.6644 135.471 50.5031C136.627 50.9046 137.417 50.8138 138.601 50.5031C140.297 50.0575 142.252 47.8547 142.252 47.8547C142.252 47.8547 151.642 46.2658 152.686 48.3844C153.729 50.5031 152.913 50.0247 152.686 51.0327C152.294 52.7671 149.886 52.9717 150.077 54.7404C150.177 55.6599 150.881 55.9666 151.121 56.859C151.442 58.0564 151.377 58.8235 151.121 60.037C150.574 62.6271 147.067 62.6875 146.947 65.3336C146.82 68.1441 150.179 68.514 151.121 71.1599Z" fill="#1A4708"/>
<path d="M116.691 74.3379C116.691 74.3379 117.996 82.2807 117.213 83.8719C116.691 84.9312 110.415 79.1049 109.91 78.0456C109.004 76.1472 110.769 73.5962 108.866 72.7489C107.933 72.3335 107.224 73.076 106.258 72.7489C103.525 71.8239 105.736 66.393 105.215 65.3336C104.724 64.3373 103.56 64.825 102.606 64.2743C99.1137 62.2576 97.3898 55.27 97.3898 55.27C97.3898 55.27 97.9417 50.8513 96.8682 48.3844C95.7038 45.7087 92.9023 45.723 91.6516 43.0878C91.0078 41.7312 91.059 40.8148 90.6083 39.3801C89.7459 36.6354 88 32.4945 88 32.4945L90.0866 26.6682L93.2166 21.3716L96.3465 17.1343L99.4765 13.9563L103.65 10.2486C103.65 10.2486 106.491 7.0072 108.866 7.07065C110.154 7.10507 110.749 7.80266 111.996 8.12998C115.552 9.063 118.937 5.88066 121.386 8.65964C121.876 9.21544 122.358 9.50633 122.429 10.2486C122.556 11.5669 120.448 11.2058 119.821 12.3673C119.038 13.8185 120.545 15.1222 119.821 16.6046C118.967 18.3527 117.169 18.0603 115.648 19.2529C113.023 21.3109 112.693 23.7785 109.91 25.6089C107.368 27.2804 105.279 26.8104 102.606 28.2572C99.4058 29.9899 96.0802 30.4862 95.3032 34.0835C95.0414 35.2958 95.037 36.0502 95.3032 37.2615C96.2168 41.4185 101.317 40.0305 104.693 42.5581C107.594 44.7298 111.475 48.9141 111.475 48.9141L116.691 51.0327C116.691 51.0327 120.566 53.3021 121.386 55.7997C121.966 57.5658 121.886 58.7756 121.386 60.5667C120.675 63.1152 117.462 63.2265 117.213 65.8633C117.028 67.8167 118.778 70.6303 118.778 70.6303L116.691 74.3379Z" stroke="#1A4708"/>
<path d="M151.121 71.1599C152.023 73.6963 149.381 76.6313 151.642 78.0456C154.244 79.6727 155.912 75.6329 157.902 73.2786C159.45 71.4482 159.268 69.5978 161.032 67.982C162.86 66.3078 165.188 67.2484 166.77 65.3336C169.127 62.4813 168.234 59.2133 166.77 55.7997C166.296 54.6939 165.35 54.3485 165.205 53.1514C164.924 50.8286 168.859 51.194 169.379 48.9141C169.802 47.0562 168.749 46.0073 168.335 44.1471C167.737 41.4551 165.845 39.8562 166.77 37.2615C167.659 34.7709 172.277 35.6567 171.987 33.0242C171.915 32.3741 171.465 31.4352 171.465 31.4352C171.465 31.4352 170.405 27.7944 169.379 25.6089C168.356 23.4313 167.603 22.2944 166.249 20.3122C164.435 17.6572 163.299 16.2238 161.032 13.9563C158.448 11.3717 157.136 9.39208 153.729 8.12998C148.505 6.19516 143.926 6.64689 139.644 10.2486C136.9 12.557 134.786 14.5791 134.949 18.1936C135.017 19.6979 135.017 20.7667 135.993 21.9012C138.157 24.4189 140.739 17.5404 143.817 18.7233C145.305 19.2951 145.506 20.6872 146.947 21.3716C149.346 22.5106 153.729 21.3716 153.729 21.3716C153.729 21.3716 165.205 28.2572 163.119 29.3165C161.032 30.3759 155.294 28.7869 155.294 28.7869L152.686 27.7275H142.774C142.774 27.7275 133.421 33.3286 132.341 39.3801C131.978 41.4155 131.894 42.6586 132.341 44.6768C132.901 47.2055 133.056 49.6644 135.471 50.5031C136.627 50.9046 137.417 50.8138 138.601 50.5031C140.297 50.0575 142.252 47.8547 142.252 47.8547C142.252 47.8547 151.642 46.2658 152.686 48.3844C153.729 50.5031 152.913 50.0247 152.686 51.0327C152.294 52.7671 149.886 52.9717 150.077 54.7404C150.177 55.6599 150.881 55.9666 151.121 56.859C151.442 58.0564 151.377 58.8235 151.121 60.037C150.574 62.6271 147.067 62.6875 146.947 65.3336C146.82 68.1441 150.179 68.514 151.121 71.1599Z" stroke="#1A4708"/>
</svg>
