<svg width="260" height="148" viewBox="0 0 260 148" fill="none" xmlns="http://www.w3.org/2000/svg">
<path d="M1.24829 122.198C0.263488 123.155 0.249419 124.737 1.21686 125.733L16.9823 141.955C17.9497 142.951 19.5323 142.982 20.5171 142.025C21.5019 141.068 21.516 139.485 20.5486 138.489L6.53485 124.07L20.7999 110.206C21.7847 109.249 21.7988 107.666 20.8314 106.671C19.8639 105.675 18.2813 105.644 17.2965 106.601L1.24829 122.198ZM258.752 130.802C259.736 129.845 259.751 128.263 258.783 127.267L243.018 111.045C242.05 110.049 240.468 110.018 239.483 110.975C238.498 111.932 238.484 113.515 239.451 114.511L253.465 128.93L239.2 142.794C238.215 143.751 238.201 145.334 239.169 146.329C240.136 147.325 241.719 147.356 242.703 146.399L258.752 130.802ZM2.97778 126.5L13.5611 126.708L13.6056 121.708L3.02222 121.5L2.97778 126.5ZM34.7278 127.125L55.8944 127.542L55.9389 122.542L34.7722 122.125L34.7278 127.125ZM77.0611 127.958L98.2278 128.375L98.2722 123.375L77.1056 122.958L77.0611 127.958ZM119.394 128.792L140.561 129.208L140.606 124.208L119.439 123.792L119.394 128.792ZM161.728 129.625L182.894 130.042L182.939 125.042L161.772 124.625L161.728 129.625ZM204.061 130.458L225.228 130.875L225.272 125.875L204.106 125.458L204.061 130.458ZM246.394 131.292L256.978 131.5L257.022 126.5L246.439 126.292L246.394 131.292Z" fill="white"/>
<path d="M101.312 147.159C100.464 147.159 99.7102 147.006 99.0511 146.699C98.392 146.392 97.8712 145.97 97.4886 145.432C97.1098 144.894 96.9129 144.277 96.8977 143.58H99.625C99.6477 144.008 99.822 144.352 100.148 144.614C100.473 144.871 100.862 145 101.312 145C101.665 145 101.977 144.922 102.25 144.767C102.523 144.612 102.737 144.394 102.892 144.114C103.047 143.83 103.123 143.504 103.119 143.136C103.123 142.761 103.045 142.434 102.886 142.153C102.731 141.873 102.515 141.655 102.239 141.5C101.966 141.341 101.652 141.261 101.295 141.261C100.958 141.258 100.638 141.331 100.335 141.483C100.036 141.634 99.8087 141.841 99.6534 142.102L97.1705 141.636L97.6761 135.364H105.142V137.631H99.9886L99.7216 140.375H99.7898C99.983 140.053 100.294 139.788 100.722 139.58C101.153 139.367 101.644 139.261 102.193 139.261C102.89 139.261 103.511 139.424 104.057 139.75C104.606 140.072 105.038 140.519 105.352 141.091C105.67 141.663 105.83 142.318 105.83 143.057C105.83 143.856 105.64 144.564 105.261 145.182C104.886 145.799 104.36 146.284 103.682 146.636C103.008 146.985 102.218 147.159 101.312 147.159ZM112.186 147.284C111.171 147.284 110.296 147.044 109.561 146.562C108.826 146.078 108.26 145.383 107.862 144.477C107.464 143.568 107.268 142.475 107.271 141.199C107.275 139.922 107.474 138.839 107.868 137.949C108.266 137.055 108.83 136.375 109.561 135.909C110.296 135.439 111.171 135.205 112.186 135.205C113.201 135.205 114.076 135.439 114.811 135.909C115.55 136.375 116.118 137.055 116.516 137.949C116.913 138.843 117.11 139.926 117.107 141.199C117.107 142.479 116.908 143.574 116.51 144.483C116.112 145.392 115.546 146.087 114.811 146.568C114.08 147.045 113.205 147.284 112.186 147.284ZM112.186 144.983C112.792 144.983 113.283 144.674 113.658 144.057C114.033 143.436 114.218 142.483 114.214 141.199C114.214 140.358 114.129 139.665 113.959 139.119C113.788 138.57 113.552 138.161 113.249 137.892C112.946 137.623 112.591 137.489 112.186 137.489C111.584 137.489 111.097 137.794 110.726 138.403C110.355 139.009 110.167 139.941 110.163 141.199C110.16 142.051 110.241 142.758 110.408 143.318C110.578 143.879 110.817 144.297 111.124 144.574C111.43 144.847 111.785 144.983 112.186 144.983ZM119.803 147.165C119.393 147.165 119.043 147.021 118.751 146.733C118.464 146.445 118.321 146.097 118.325 145.688C118.321 145.286 118.464 144.943 118.751 144.659C119.043 144.371 119.393 144.227 119.803 144.227C120.189 144.227 120.53 144.371 120.825 144.659C121.125 144.943 121.276 145.286 121.28 145.688C121.276 145.96 121.204 146.208 121.064 146.432C120.928 146.655 120.748 146.833 120.524 146.966C120.304 147.098 120.064 147.165 119.803 147.165ZM123.087 147L127.78 137.705V137.631H122.291V135.364H130.689V137.648L125.979 147H123.087ZM132.233 147V144.977L136.477 141.261C136.795 140.973 137.066 140.71 137.29 140.472C137.513 140.229 137.684 139.987 137.801 139.744C137.919 139.498 137.977 139.231 137.977 138.943C137.977 138.621 137.907 138.347 137.767 138.119C137.627 137.888 137.434 137.71 137.188 137.585C136.941 137.46 136.659 137.398 136.341 137.398C136.019 137.398 135.737 137.464 135.494 137.597C135.252 137.725 135.063 137.913 134.926 138.159C134.794 138.405 134.727 138.705 134.727 139.057H132.062C132.062 138.265 132.241 137.581 132.597 137.006C132.953 136.43 133.453 135.987 134.097 135.676C134.744 135.362 135.496 135.205 136.352 135.205C137.235 135.205 138.002 135.352 138.653 135.648C139.305 135.943 139.809 136.356 140.165 136.886C140.525 137.413 140.705 138.025 140.705 138.722C140.705 139.165 140.616 139.604 140.438 140.04C140.259 140.475 139.939 140.956 139.477 141.483C139.019 142.009 138.367 142.64 137.523 143.375L136.131 144.659V144.733H140.847V147H132.233ZM142.044 145.068V142.875L146.811 135.364H148.76V138.341H147.629L144.839 142.761V142.852H151.743V145.068H142.044ZM147.663 147V144.398L147.72 143.438V135.364H150.351V147H147.663ZM159.183 144.71L159.195 141.398H159.581L162.036 138.273H165.183L161.536 142.75H160.803L159.183 144.71ZM156.678 147V135.364H159.456V147H156.678ZM162.098 147L159.814 143.375L161.643 141.403L165.308 147H162.098ZM166.178 147V138.273H168.82V139.875H168.916C169.098 139.345 169.405 138.926 169.837 138.619C170.268 138.312 170.784 138.159 171.382 138.159C171.988 138.159 172.507 138.314 172.939 138.625C173.371 138.936 173.645 139.352 173.763 139.875H173.854C174.017 139.356 174.335 138.941 174.808 138.631C175.282 138.316 175.84 138.159 176.484 138.159C177.31 138.159 177.981 138.424 178.496 138.955C179.011 139.481 179.268 140.205 179.268 141.125V147H176.49V141.761C176.49 141.326 176.378 140.994 176.155 140.767C175.931 140.536 175.642 140.42 175.286 140.42C174.903 140.42 174.602 140.545 174.382 140.795C174.166 141.042 174.058 141.373 174.058 141.79V147H171.388V141.733C171.388 141.328 171.278 141.008 171.058 140.773C170.839 140.538 170.549 140.42 170.189 140.42C169.946 140.42 169.732 140.479 169.547 140.597C169.361 140.71 169.215 140.873 169.109 141.085C169.007 141.297 168.956 141.547 168.956 141.835V147H166.178Z" fill="white"/>
<circle cx="130" cy="50" r="50" fill="#1D66D3"/>
</svg>
