<svg width="260" height="129" viewBox="0 0 260 129" fill="none" xmlns="http://www.w3.org/2000/svg">
<path d="M1.24829 98.1975C0.263488 99.1546 0.249419 100.737 1.21686 101.733L16.9823 117.955C17.9497 118.951 19.5323 118.982 20.5171 118.025C21.5019 117.068 21.516 115.485 20.5486 114.489L6.53485 100.07L20.7999 86.2063C21.7847 85.2493 21.7988 83.6664 20.8314 82.6709C19.8639 81.6755 18.2813 81.6443 17.2965 82.6014L1.24829 98.1975ZM258.752 106.802C259.736 105.845 259.751 104.263 258.783 103.267L243.018 87.0447C242.05 86.0492 240.468 86.0181 239.483 86.9751C238.498 87.9322 238.484 89.515 239.451 90.5105L253.465 104.93L239.2 118.794C238.215 119.751 238.201 121.334 239.169 122.329C240.136 123.325 241.719 123.356 242.703 122.399L258.752 106.802ZM2.97778 102.5L13.5611 102.708L13.6056 97.7084L3.02222 97.5001L2.97778 102.5ZM34.7278 103.125L55.8944 103.542L55.9389 98.5418L34.7722 98.1251L34.7278 103.125ZM77.0611 103.958L98.2278 104.375L98.2722 99.3751L77.1056 98.9584L77.0611 103.958ZM119.394 104.792L140.561 105.208L140.606 100.208L119.439 99.7918L119.394 104.792ZM161.728 105.625L182.894 106.042L182.939 101.042L161.772 100.625L161.728 105.625ZM204.061 106.458L225.228 106.875L225.272 101.875L204.106 101.458L204.061 106.458ZM246.394 107.292L256.978 107.5L257.022 102.5L246.439 102.292L246.394 107.292Z" fill="white"/>
<path d="M93.2386 116.364V128H90.4318V118.989H90.3636L87.7614 120.58V118.148L90.6307 116.364H93.2386ZM95.8111 128V125.977L100.055 122.261C100.374 121.973 100.644 121.71 100.868 121.472C101.091 121.229 101.262 120.987 101.379 120.744C101.497 120.498 101.555 120.231 101.555 119.943C101.555 119.621 101.485 119.347 101.345 119.119C101.205 118.888 101.012 118.71 100.766 118.585C100.519 118.46 100.237 118.398 99.919 118.398C99.5971 118.398 99.3149 118.464 99.0724 118.597C98.83 118.725 98.6406 118.913 98.5043 119.159C98.3717 119.405 98.3054 119.705 98.3054 120.057H95.6406C95.6406 119.265 95.8187 118.581 96.1747 118.006C96.5308 117.43 97.0308 116.987 97.6747 116.676C98.3224 116.362 99.0743 116.205 99.9304 116.205C100.813 116.205 101.58 116.352 102.232 116.648C102.883 116.943 103.387 117.356 103.743 117.886C104.103 118.413 104.283 119.025 104.283 119.722C104.283 120.165 104.194 120.604 104.016 121.04C103.838 121.475 103.518 121.956 103.055 122.483C102.597 123.009 101.946 123.64 101.101 124.375L99.7088 125.659V125.733H104.425V128H95.8111ZM107.599 128.165C107.19 128.165 106.84 128.021 106.548 127.733C106.26 127.445 106.118 127.097 106.122 126.688C106.118 126.286 106.26 125.943 106.548 125.659C106.84 125.371 107.19 125.227 107.599 125.227C107.986 125.227 108.327 125.371 108.622 125.659C108.921 125.943 109.073 126.286 109.077 126.688C109.073 126.96 109.001 127.208 108.861 127.432C108.724 127.655 108.545 127.833 108.321 127.966C108.101 128.098 107.861 128.165 107.599 128.165ZM114.786 116.364V128H111.979V118.989H111.911L109.308 120.58V118.148L112.178 116.364H114.786ZM122.17 128.284C121.155 128.284 120.28 128.044 119.545 127.562C118.811 127.078 118.244 126.383 117.847 125.477C117.449 124.568 117.252 123.475 117.256 122.199C117.259 120.922 117.458 119.839 117.852 118.949C118.25 118.055 118.814 117.375 119.545 116.909C120.28 116.439 121.155 116.205 122.17 116.205C123.186 116.205 124.061 116.439 124.795 116.909C125.534 117.375 126.102 118.055 126.5 118.949C126.898 119.843 127.095 120.926 127.091 122.199C127.091 123.479 126.892 124.574 126.494 125.483C126.097 126.392 125.53 127.087 124.795 127.568C124.064 128.045 123.189 128.284 122.17 128.284ZM122.17 125.983C122.777 125.983 123.267 125.674 123.642 125.057C124.017 124.436 124.203 123.483 124.199 122.199C124.199 121.358 124.114 120.665 123.943 120.119C123.773 119.57 123.536 119.161 123.233 118.892C122.93 118.623 122.576 118.489 122.17 118.489C121.568 118.489 121.081 118.794 120.71 119.403C120.339 120.009 120.152 120.941 120.148 122.199C120.144 123.051 120.225 123.758 120.392 124.318C120.563 124.879 120.801 125.297 121.108 125.574C121.415 125.847 121.769 125.983 122.17 125.983ZM128.56 126.068V123.875L133.327 116.364H135.276V119.341H134.145L131.355 123.761V123.852H138.259V126.068H128.56ZM134.179 128V125.398L134.236 124.438V116.364H136.866V128H134.179ZM149.136 125.71L149.148 122.398H149.534L151.989 119.273H155.136L151.489 123.75H150.756L149.136 125.71ZM146.631 128V116.364H149.409V128H146.631ZM152.051 128L149.767 124.375L151.597 122.403L155.261 128H152.051ZM156.131 128V119.273H158.773V120.875H158.869C159.051 120.345 159.358 119.926 159.79 119.619C160.222 119.312 160.737 119.159 161.335 119.159C161.941 119.159 162.46 119.314 162.892 119.625C163.324 119.936 163.598 120.352 163.716 120.875H163.807C163.97 120.356 164.288 119.941 164.761 119.631C165.235 119.316 165.794 119.159 166.438 119.159C167.263 119.159 167.934 119.424 168.449 119.955C168.964 120.481 169.222 121.205 169.222 122.125V128H166.443V122.761C166.443 122.326 166.331 121.994 166.108 121.767C165.884 121.536 165.595 121.42 165.239 121.42C164.856 121.42 164.555 121.545 164.335 121.795C164.119 122.042 164.011 122.373 164.011 122.79V128H161.341V122.733C161.341 122.328 161.231 122.008 161.011 121.773C160.792 121.538 160.502 121.42 160.142 121.42C159.9 121.42 159.686 121.479 159.5 121.597C159.314 121.71 159.169 121.873 159.062 122.085C158.96 122.297 158.909 122.547 158.909 122.835V128H156.131Z" fill="white"/>
<circle cx="130" cy="40" r="40" fill="#EA5A1F"/>
<path d="M115.706 12.0983L99.0008 14.9767C98.4041 15.5524 97.2109 17.2795 97.2109 17.2795C97.2109 17.2795 96.6074 18.0591 95.421 20.158L128.832 14.9767L158.664 12.0983L156.277 9.79553C156.277 9.79553 137.947 8.00559 126.446 9.79553C122.204 10.4556 115.706 12.0983 115.706 12.0983Z" fill="#D14528"/>
<path d="M103.177 42.6099L90.6479 47.2154C90.6479 47.2154 90.1676 44.419 90.0513 42.6099C89.9359 40.8148 90.0513 38.0044 90.0513 38.0044L100.194 31.6718C100.194 31.6718 106.474 28.1119 110.933 27.0663C116.82 25.6861 120.706 28.9363 126.446 27.0663C128.914 26.2621 129.971 25.066 132.412 24.1878C137.693 22.288 141.265 23.7825 146.731 22.4607C152.817 20.9893 162.84 17.2795 162.84 17.2795C162.84 17.2795 164.392 19.6855 165.227 21.3093C166.592 23.9647 167.017 25.3392 167.017 25.3392C167.017 25.3392 157.037 25.2896 150.311 25.9149C143.216 26.5745 132.412 29.369 132.412 29.369L115.706 35.1259L103.177 42.6099Z" fill="#D14528"/>
<path d="M91.2445 50.6696L92.4378 54.1237C92.4378 54.1237 100.082 55.7985 104.967 55.2751C112.634 54.4537 122.866 47.2154 122.866 47.2154L137.782 44.337L153.891 39.1558L170 36.853L168.807 30.5204C168.807 30.5204 154.425 29.7862 145.538 31.6718C138.267 33.2147 127.639 38.0044 127.639 38.0044L107.95 47.2154L91.2445 50.6696Z" fill="#D14528"/>
<path d="M115.706 69.0917C112.383 70.3135 106.757 73.1215 106.757 73.1215C106.757 73.1215 108.149 74.2625 109.144 74.8486C110.033 75.3729 111.53 76 111.53 76L130.026 70.8188C130.026 70.8188 136.093 68.5817 140.168 67.9403C145.457 67.1078 152.943 68.516 153.891 67.9403C156.266 66.4986 158.067 62.8832 158.664 62.7591C160.275 62.4241 162.84 63.3348 162.84 63.3348C162.84 63.3348 165.674 59.2413 166.42 57.5779C167.006 56.273 167.613 54.1237 167.613 54.1237C167.613 54.1237 143.685 52.3803 128.832 55.2751C116.48 57.6826 97.2109 63.3348 97.2109 63.3348C97.2109 63.3348 97.9147 64.403 98.4041 65.0619C99.6556 66.7466 101.984 69.0917 101.984 69.0917C101.984 69.0917 110.918 65.4501 116.9 63.9105C128.212 60.9988 146.731 61.032 146.731 61.032C146.731 61.032 136.198 66.439 128.832 67.9403C123.796 68.9668 120.516 67.3235 115.706 69.0917Z" fill="#D14528"/>
</svg>
